<svg id="Layer_1" data-name="Layer 1" xmlns="http://www.w3.org/2000/svg" viewBox="0 0 48 48"><defs><style>.cls-1{fill:#e6e7e8;}.cls-2{fill:#bcbec0;}.cls-3{fill:none;}.cls-4{fill:#939598;}.cls-5{fill:#603913;}.cls-6{fill:#9f5500;}</style></defs><title>AxeIcon</title><path class="cls-1" d="M48,5.16V42.84A5.16,5.16,0,0,1,42.84,48H5.16a5.08,5.08,0,0,1-1.52-.23,4.66,4.66,0,0,1-1-.4l-.32-.19a5.41,5.41,0,0,1-.61-.46,5.3,5.3,0,0,1-.53-.53,6,6,0,0,1-.42-.57A5.17,5.17,0,0,1,0,42.84V5.16A5.16,5.16,0,0,1,5.16,0H42.84A5.16,5.16,0,0,1,48,5.16Z" transform="translate(0 0)"/><path class="cls-2" d="M38.49,30.86C34.34,35,28.42,35.8,25.26,32.64l1.38-1.37c2.54,2.54,7.3,1.9,10.63-1.43s4-8.09,1.43-10.63l1.57-1.57C43.43,20.8,42.63,26.72,38.49,30.86Z" transform="translate(0 0)"/><line class="cls-3" x1="38.7" y1="19.2" x2="40.27" y2="17.64"/><line class="cls-3" x1="25.26" y1="32.64" x2="26.64" y2="31.27"/><path class="cls-4" d="M37.27,29.84c-3.33,3.33-8.09,4-10.63,1.43l5-5-4.49-4.49,2.31-2.32L33.92,24l4.78-4.77C41.24,21.75,40.6,26.51,37.27,29.84Z" transform="translate(0 0)"/><path class="cls-2" d="M18,10.55c4.15-4.14,10.07-4.94,13.23-1.78l-1.38,1.37c-2.54-2.54-7.3-1.89-10.63,1.44s-4,8.09-1.43,10.63L16.2,23.78C13,20.62,13.84,14.7,18,10.55Z" transform="translate(0 0)"/><line class="cls-3" x1="17.77" y1="22.21" x2="16.2" y2="23.77"/><path class="cls-4" d="M19.2,11.58c3.33-3.33,8.09-4,10.63-1.44l-5,5,4.49,4.49L27,21.92l-4.5-4.49-4.77,4.78C15.23,19.67,15.87,14.91,19.2,11.58Z" transform="translate(0 0)"/><path class="cls-5" d="M37.63,13.78l-34,34a4.66,4.66,0,0,1-1-.4L37,13.11Z" transform="translate(0 0)"/><path class="cls-6" d="M37,13.11,2.69,47.37l-.32-.19a5.41,5.41,0,0,1-.61-.46,5.3,5.3,0,0,1-.53-.53,6,6,0,0,1-.42-.57L35.14,11.29Z" transform="translate(0 0)"/><polygon class="cls-4" points="42.54 6.42 34.05 10.2 38.76 14.91 42.54 6.42"/><line class="cls-3" x1="36.95" y1="13.11" x2="37.73" y2="12.33"/></svg>