<svg id="Layer_1" data-name="Layer 1" xmlns="http://www.w3.org/2000/svg" viewBox="0 0 48 48"><defs><style>.cls-1{fill:#e6e7e8;}.cls-2{fill:#939598;}.cls-3{fill:#bcbec0;}.cls-4{fill:none;}.cls-5{fill:#e28d55;}.cls-6{fill:#e2a955;}.cls-7{fill:#3f0300;}</style></defs><title>DaggerIcon</title><path class="cls-1" d="M48,5.16V42.84A5.16,5.16,0,0,1,42.84,48H5.16a5.08,5.08,0,0,1-1.52-.23,4.66,4.66,0,0,1-1-.4l-.32-.19a4.43,4.43,0,0,1-.61-.46,5.3,5.3,0,0,1-.53-.53,6,6,0,0,1-.42-.57A5.15,5.15,0,0,1,0,42.84V5.16A5.16,5.16,0,0,1,5.16,0H42.84A5.16,5.16,0,0,1,48,5.16Z" transform="translate(0 0)"/><polygon class="cls-2" points="31.23 12.14 26.07 17.27 13.45 29.81 13.1 30.16 12.79 30.46 10.38 28.05 23.62 14.82 31.23 12.14"/><polygon class="cls-3" points="28.57 19.77 15.33 33 12.79 30.46 13.1 30.16 13.45 29.81 26.07 17.27 31.23 12.14 28.55 19.75 28.57 19.77"/><path class="cls-4" d="M11.84,26.6h0l-.06-.06Z" transform="translate(0 0)"/><polygon class="cls-5" points="15.59 33.77 15.12 34.24 14.12 33.83 9.53 29.24 9.06 28.18 9.53 27.71 12.31 31 15.59 33.77"/><polygon class="cls-6" points="15.84 33.52 15.59 33.77 12.31 31 9.53 27.71 9.78 27.46 15.84 33.52"/><path class="cls-4" d="M11.84,26.6h0l-.06-.06Z" transform="translate(0 0)"/><path d="M6.84,38.7l-.56.56L3.94,36.92l.57-.57c.34.4.71.81,1.12,1.22l0,0C6.05,38,6.45,38.36,6.84,38.7Z" transform="translate(0 0)"/><path class="cls-4" d="M10.27,33.41,10,33.17l-.24-.24.24.24Z" transform="translate(0 0)"/><path class="cls-4" d="M9.26,34.46,9,34.2,8.76,34l.27.26Z" transform="translate(0 0)"/><path class="cls-7" d="M7.12,38.42l-.28.28c-.39-.34-.79-.7-1.19-1.1l0,0c-.41-.41-.78-.82-1.12-1.22l.28-.28c.34.41.73.83,1.15,1.25S6.73,38.09,7.12,38.42Z" transform="translate(0 0)"/><polygon class="cls-5" points="6.11 39.43 5.83 39.71 4.54 39.4 3.77 38.62 3.46 37.4 3.77 37.09 6.11 39.43"/><rect class="cls-6" x="4.9" y="36.52" width="0.25" height="3.31" transform="translate(-25.52 14.73) rotate(-45)"/><path class="cls-4" d="M10.27,33.41,10,33.17l-.24-.24.24.24Z" transform="translate(0 0)"/><path d="M12.93,32.61l-.66.66c-.37-.32-.75-.67-1.13-1.05s-.84-.88-1.19-1.3l.64-.64Z" transform="translate(0 0)"/><path class="cls-7" d="M12.27,33.27l-.27.27c-.39-.33-.79-.7-1.19-1.1l0,0C10.38,32,10,31.6,9.67,31.2l.28-.28c.35.42.76.87,1.19,1.3S11.9,33,12.27,33.27Z" transform="translate(0 0)"/><path d="M12,33.54l-.75.75c-.33-.27-.65-.57-1-.88L10,33.17l-.24-.24c-.31-.32-.61-.65-.88-1l.76-.75c.33.4.71.81,1.12,1.22l0,0C11.21,32.84,11.61,33.21,12,33.54Z" transform="translate(0 0)"/><path class="cls-4" d="M10.27,33.41,10,33.17l-.24-.24.24.24Z" transform="translate(0 0)"/><path class="cls-4" d="M9.26,34.46,9,34.2,8.76,34l.27.26Z" transform="translate(0 0)"/><path class="cls-7" d="M11.25,34.29l-.28.28c-.39-.33-.8-.7-1.2-1.11h0c-.4-.41-.78-.82-1.12-1.22L8.91,32c.27.33.57.66.88,1l.24.24.24.24C10.6,33.72,10.92,34,11.25,34.29Z" transform="translate(0 0)"/><path class="cls-4" d="M10.27,33.41,10,33.17l-.24-.24.24.24Z" transform="translate(0 0)"/><path d="M11,34.57l-.76.76c-.31-.27-.63-.56-1-.87L9,34.23,8.76,34c-.31-.33-.61-.66-.88-1l.75-.76c.34.4.72.81,1.12,1.22h0C10.17,33.87,10.58,34.24,11,34.57Z" transform="translate(0 0)"/><path class="cls-4" d="M9.26,34.46,9,34.2,8.76,34l.27.26Z" transform="translate(0 0)"/><path class="cls-7" d="M10.21,35.33l-.27.27c-.4-.33-.8-.71-1.2-1.11h0c-.4-.41-.78-.82-1.12-1.22L7.88,33c.27.32.57.65.88,1L9,34.2l.26.26C9.58,34.77,9.9,35.06,10.21,35.33Z" transform="translate(0 0)"/><path class="cls-4" d="M9.26,34.46,9,34.2,8.76,34l.27.26Z" transform="translate(0 0)"/><path d="M9.94,35.6l-.75.75C8.8,36,8.4,35.66,8,35.26l0,0c-.41-.41-.78-.82-1.12-1.22l.75-.75c.34.4.72.81,1.12,1.22h0C9.14,34.89,9.54,35.27,9.94,35.6Z" transform="translate(0 0)"/><path class="cls-7" d="M9.19,36.35l-.28.28c-.39-.33-.79-.7-1.19-1.09l0,0c-.41-.41-.78-.82-1.12-1.22L6.85,34c.34.4.71.81,1.12,1.22l0,0C8.4,35.66,8.8,36,9.19,36.35Z" transform="translate(0 0)"/><path d="M7.88,37.66l-.76.76c-.39-.33-.79-.7-1.18-1.1s-.81-.84-1.15-1.25l.75-.75c.34.4.71.81,1.12,1.22h0C7.07,37,7.48,37.33,7.88,37.66Z" transform="translate(0 0)"/><path d="M8.91,36.63l-.76.76c-.39-.33-.79-.7-1.18-1.1S6.16,35.45,5.82,35l.75-.75c.34.4.71.81,1.12,1.22l0,0C8.12,35.93,8.52,36.3,8.91,36.63Z" transform="translate(0 0)"/><path class="cls-7" d="M8.15,37.39l-.27.27c-.4-.33-.81-.71-1.21-1.11h0c-.41-.41-.78-.82-1.12-1.22L5.82,35c.34.41.73.83,1.15,1.25S7.76,37.06,8.15,37.39Z" transform="translate(0 0)"/><polygon class="cls-3" points="39.65 21.96 26.42 35.2 18.81 37.87 23.97 32.75 36.58 20.21 36.94 19.86 37.24 19.55 39.65 21.96"/><polygon class="cls-2" points="37.24 19.55 36.94 19.86 36.58 20.21 23.97 32.75 18.81 37.87 21.48 30.27 21.47 30.25 34.71 17.02 37.24 19.55"/><path class="cls-4" d="M38.2,23.42h0l.07.06Z" transform="translate(0 0)"/><polygon class="cls-5" points="34.45 16.24 34.92 15.77 35.92 16.19 40.51 20.78 40.98 21.84 40.51 22.31 37.73 19.02 34.45 16.24"/><polygon class="cls-6" points="34.19 16.5 34.45 16.24 37.73 19.02 40.51 22.31 40.26 22.56 34.19 16.5"/><path class="cls-4" d="M38.2,23.42h0l.07.06Z" transform="translate(0 0)"/><path d="M43.19,11.33l.56-.57,2.34,2.34-.56.57c-.34-.4-.72-.81-1.13-1.22l0,0C44,12,43.58,11.66,43.19,11.33Z" transform="translate(0 0)"/><path class="cls-4" d="M39.77,16.61l.24.24.23.24L40,16.85Z" transform="translate(0 0)"/><path class="cls-4" d="M40.77,15.56l.27.26c.08.08.15.16.23.23L41,15.79Z" transform="translate(0 0)"/><path class="cls-7" d="M42.91,11.6l.28-.27c.39.33.79.7,1.19,1.09l0,0c.41.41.79.82,1.13,1.22l-.28.28c-.35-.41-.73-.83-1.15-1.25S43.3,11.93,42.91,11.6Z" transform="translate(0 0)"/><polygon class="cls-5" points="43.93 10.59 44.2 10.31 45.49 10.62 46.26 11.4 46.58 12.62 46.27 12.92 43.93 10.59"/><rect class="cls-6" x="44.89" y="10.19" width="0.25" height="3.31" transform="translate(4.81 35.3) rotate(-45)"/><path class="cls-4" d="M39.77,16.61l.24.24.23.24L40,16.85Z" transform="translate(0 0)"/><path d="M37.11,17.41l.66-.66c.37.32.74.67,1.12,1.05s.84.88,1.2,1.31l-.64.64Z" transform="translate(0 0)"/><path class="cls-7" d="M37.77,16.75l.27-.27c.39.33.79.7,1.18,1.1l0,0c.41.4.78.82,1.12,1.22l-.28.28c-.36-.43-.76-.87-1.2-1.31S38.14,17.07,37.77,16.75Z" transform="translate(0 0)"/><path d="M38,16.48l.75-.75c.32.27.65.57,1,.88l.23.24.24.24c.32.33.62.65.89,1l-.76.76c-.34-.4-.71-.82-1.12-1.22l0,0C38.83,17.18,38.43,16.81,38,16.48Z" transform="translate(0 0)"/><path class="cls-4" d="M39.77,16.61l.24.24.23.24L40,16.85Z" transform="translate(0 0)"/><path class="cls-4" d="M40.77,15.56l.27.26c.08.08.15.16.23.23L41,15.79Z" transform="translate(0 0)"/><path class="cls-7" d="M38.79,15.73l.27-.28q.6.51,1.2,1.11h0c.41.41.79.82,1.12,1.22l-.27.28c-.27-.33-.57-.65-.89-1L40,16.85l-.24-.24C39.44,16.3,39.11,16,38.79,15.73Z" transform="translate(0 0)"/><path class="cls-4" d="M39.77,16.61l.24.24.23.24L40,16.85Z" transform="translate(0 0)"/><path d="M39.06,15.45l.76-.75c.31.26.63.55,1,.86l.23.23.27.26c.32.33.62.66.89,1l-.76.76c-.33-.4-.71-.81-1.12-1.22h0Q39.66,16,39.06,15.45Z" transform="translate(0 0)"/><path class="cls-4" d="M40.77,15.56l.27.26c.08.08.15.16.23.23L41,15.79Z" transform="translate(0 0)"/><path class="cls-7" d="M39.82,14.7l.28-.28c.39.34.8.71,1.2,1.11h0c.41.41.79.82,1.12,1.22l-.27.27c-.27-.32-.57-.65-.89-1-.08-.07-.15-.15-.23-.23l-.27-.26C40.45,15.25,40.13,15,39.82,14.7Z" transform="translate(0 0)"/><path class="cls-4" d="M40.77,15.56l.27.26c.08.08.15.16.23.23L41,15.79Z" transform="translate(0 0)"/><path d="M40.1,14.42l.75-.75c.39.33.79.69,1.19,1.09l0,0c.4.41.78.82,1.12,1.22l-.76.75c-.33-.4-.71-.81-1.12-1.22h0C40.9,15.13,40.49,14.76,40.1,14.42Z" transform="translate(0 0)"/><path class="cls-7" d="M40.85,13.67l.28-.28c.39.33.79.7,1.19,1.1l0,0c.41.41.79.82,1.13,1.22l-.28.28c-.34-.4-.72-.81-1.12-1.22l0,0C41.64,14.36,41.24,14,40.85,13.67Z" transform="translate(0 0)"/><path d="M42.16,12.36l.75-.76c.39.33.79.7,1.19,1.1s.8.84,1.15,1.25l-.75.75c-.34-.4-.72-.81-1.12-1.22h0C43,13.07,42.56,12.7,42.16,12.36Z" transform="translate(0 0)"/><path d="M41.13,13.39l.75-.76c.39.34.79.7,1.19,1.1s.8.84,1.15,1.25l-.75.75c-.34-.4-.72-.81-1.13-1.22l0,0C41.92,14.09,41.52,13.72,41.13,13.39Z" transform="translate(0 0)"/><path class="cls-7" d="M41.88,12.63l.28-.27c.4.34.8.71,1.21,1.11h0c.4.41.78.82,1.12,1.22l-.28.28c-.35-.41-.73-.83-1.15-1.25S42.27,13,41.88,12.63Z" transform="translate(0 0)"/></svg>