<svg id="Layer_1" data-name="Layer 1" xmlns="http://www.w3.org/2000/svg" viewBox="0 0 47.87 47.86"><defs><style>.cls-1{fill:#e6e7e8;}.cls-2{fill:#58595b;}.cls-3{fill:none;}</style></defs><title>EmptySwordIcon</title><path class="cls-1" d="M42.86,0H5.28A5.15,5.15,0,0,0,.13,5.14V42.72a5.14,5.14,0,0,0,.81,2.77,6,6,0,0,0,.42.57,5.3,5.3,0,0,0,.53.53,5.41,5.41,0,0,0,.61.46,3.37,3.37,0,0,0,.32.19,5.05,5.05,0,0,0,2.46.62H42.86A5.14,5.14,0,0,0,48,42.72V5.14A5.14,5.14,0,0,0,42.86,0Zm-2,15,0,0L21.52,34.42l-.12-.12h0l1,1-.37.37-.69.69-1.58-.72-2-2L16.41,35l-1.11,1.1-.4.41-1.11,1.11-.4.4-1.11,1.1-.41.41-1.1,1.11-.41.4L9.25,42.14l-.4.41L8,43.38l-.26.25-.4.41-2-.58L4.09,42.19l-.58-1.91L13,30.77l.93-.92-1.71-1.71-.81-1.68.69-.68.37-.37.86.86L15,24.57l0,0L32.34,7.26l.35-.11L32.88,7,44.43,3.44ZM15.58,24.26l0,0-.14-.09Z" transform="translate(-0.13)"/><path class="cls-2" d="M40.39,15.32l0,0L43.89,3.74,32.69,7.15l-.35.11L15.07,24.54l0,0-1.69,1.7-.86-.86-.37.37-.69.68.81,1.68L14,29.85l-.93.92L3.51,40.28l.58,1.91,1.25,1.27,2,.58.4-.41L8,43.38l.83-.83.4-.41L10.36,41l.41-.4,1.1-1.11.41-.41L13.39,38l.4-.4L14.9,36.5l.4-.41L16.41,35l1.34-1.34,2,2,1.58.72.69-.69.37-.37-1-1h0ZM15.61,24.24l0,0-.11-.11Z" transform="translate(-0.13)"/><path class="cls-2" d="M15.61,24.24l0,0-.11-.11Z" transform="translate(-0.13)"/><path class="cls-3" d="M15.61,24.24l0,0-.11-.11Z" transform="translate(-0.13)"/><path class="cls-3" d="M15.61,24.24l0,0-.11-.11Z" transform="translate(-0.13)"/></svg>