<svg id="Layer_1" data-name="Layer 1" xmlns="http://www.w3.org/2000/svg" viewBox="0 0 48 48.04"><defs><style>.cls-1{fill:#e6e7e8;}.cls-2{fill:#58595b;}.cls-3{fill:none;}.cls-4{fill:#fff;}</style></defs><title>EmptyHelmetIcon</title><path class="cls-1" d="M42.84,0H5.16A5.16,5.16,0,0,0,0,5.16V42.84a5.15,5.15,0,0,0,.81,2.78,6,6,0,0,0,.42.57,5.3,5.3,0,0,0,.53.53,4.43,4.43,0,0,0,.61.46l.32.19a4.66,4.66,0,0,0,1,.4A5.08,5.08,0,0,0,5.16,48H42.84A5.16,5.16,0,0,0,48,42.84V5.16A5.16,5.16,0,0,0,42.84,0ZM10.39,13.43a17.26,17.26,0,0,1,5.73-6.82,8.89,8.89,0,0,1,.59-.82,11.21,11.21,0,0,1,.81-.93A7.62,7.62,0,0,1,23,2.54c.48,0,1.18.06,1.18.06a7.82,7.82,0,0,1,3.24.28,6.92,6.92,0,0,1,2,1,16.69,16.69,0,0,1,5.11,1.94v.14h-.35a7.62,7.62,0,0,0-5.43,2.32,10.2,10.2,0,0,0-2.92,5.93L20.22,12.5l-4.28-1.28-1.22-.36h0l-.11.08-.1.06-4.11,2.52ZM43,41.43a20.91,20.91,0,0,1-7.54-3.35,4.18,4.18,0,0,1-1.29-2.16c-.07-.23-.14-.47-.19-.71h0a2.19,2.19,0,0,0-.11-.51,25.09,25.09,0,0,1-.36-4.79l-5.12,4.4-.2.17-1.1.95-.24.2a.69.69,0,0,1-.13.11l-.46.41-1.17,1-1,.86-7.93,6.82-10-14.67V27.26a5,5,0,0,0,2.75-2.49H9l.21.12c0-.14-.07-.28-.1-.42a4.17,4.17,0,0,0,.21-1.33,4.67,4.67,0,0,0-.58-2.23,6.94,6.94,0,0,0-2.5-2.5V16.19l4.1-2.53.1-.06,4.11-2.53.21-.13,11.1,3.31a10.16,10.16,0,0,1,2.92-5.92A7.62,7.62,0,0,1,34.16,6h.25l.1.06c.23.13.46.27.68.42a17.16,17.16,0,0,1,4.28,24.89C37.75,37.84,44.74,41.63,43,41.43Z"/><path class="cls-2" d="M43,41.43a20.91,20.91,0,0,1-7.54-3.35,4.18,4.18,0,0,1-1.29-2.16c-.07-.23-.14-.47-.19-.71h0a2.19,2.19,0,0,0-.11-.51,25.09,25.09,0,0,1-.36-4.79V27.46s-3.91-.41-3.8-4.32a4.36,4.36,0,0,1,3.8-4.32V16.56l-6.48-1.93A6.75,6.75,0,0,1,29.3,9,12.32,12.32,0,0,1,34.51,6.6a6.05,6.05,0,0,1,.68-.11,17.16,17.16,0,0,1,4.28,24.89C37.75,37.84,44.74,41.63,43,41.43Z"/><path class="cls-2" d="M35.19,6.49a6.05,6.05,0,0,0-.68.11A12.32,12.32,0,0,0,29.3,9a6.75,6.75,0,0,0-2.24,5.65l-1.25-.38a10.16,10.16,0,0,1,2.92-5.92A7.62,7.62,0,0,1,34.16,6h.25l.1.06C34.74,6.2,35,6.34,35.19,6.49Z"/><path class="cls-2" d="M16.18,44.81l-10-14.67V27.26a5,5,0,0,0,2.75-2.49l.12-.3-.12.3,6.69,3.86a32.06,32.06,0,0,1,.95,6.72,1.09,1.09,0,0,0,0,.18A74.85,74.85,0,0,1,16.18,44.81Z"/><path class="cls-2" d="M24.13,2.6a9,9,0,0,0-3,.94,9.61,9.61,0,0,0-2,1.37,7.78,7.78,0,0,0-.85.88,10.1,10.1,0,0,0-1.66,2.8,10.83,10.83,0,0,0-.71,2.63l-1.22-.36h0l-.11.08-.1.06-4.11,2.52v-.08l4.21-2.59a9,9,0,0,1,.54-2.25,10.06,10.06,0,0,1,1-2,8.89,8.89,0,0,1,.59-.82,11.21,11.21,0,0,1,.81-.93A7.62,7.62,0,0,1,23,2.54C23.43,2.54,24.13,2.6,24.13,2.6Z"/><path class="cls-2" d="M34.51,5.79v.14h-.35a7.62,7.62,0,0,0-5.43,2.32,10.2,10.2,0,0,0-2.92,5.93L20.22,12.5v-.06a.13.13,0,0,1,0-.06.45.45,0,0,1,0-.11v0c0-.11,0-.24.05-.4l0-.13a.5.5,0,0,1,0-.12l0-.16.06-.28.05-.2,0-.11c0-.06,0-.12,0-.18.09-.31.2-.64.34-1,0,0,0-.08.05-.13L21,9.35a2,2,0,0,0,.1-.21A.8.8,0,0,1,21.2,9l.09-.2.1-.19v0l.07-.13a1.62,1.62,0,0,1,.1-.18l.08-.13L21.74,8l.1-.15c0-.05.07-.1.1-.16l.11-.15a3.46,3.46,0,0,1,.22-.31L22.39,7c.12-.16.25-.31.38-.46l.14-.16.29-.3a3.61,3.61,0,0,1,.35-.33h0l.18-.12a.05.05,0,0,1,0,0,11.35,11.35,0,0,1,1-.62l.17-.1.56-.28.1,0,.62-.27.21-.08,0,0,.14,0,.25-.09L27.09,4h0l.25-.07h0l.2,0,.12,0a4.69,4.69,0,0,1,.64-.09h.15a2.8,2.8,0,0,1,.92.09A16.69,16.69,0,0,1,34.51,5.79Z"/><line class="cls-3" x1="14.71" y1="10.86" x2="14.6" y2="10.93"/><line class="cls-3" x1="14.81" y1="10.8" x2="14.72" y2="10.86"/><path class="cls-4" d="M9.16,24.89,9,24.77c0-.1.08-.2.11-.3C9.09,24.61,9.12,24.75,9.16,24.89Z"/><path class="cls-2" d="M24.48,20.91v2.82l-8.85,4.9L9,24.77c0-.14.14-.16.11-.3a4.17,4.17,0,0,0,.21-1.33,4.67,4.67,0,0,0-.58-2.23L14.88,24Z"/><path class="cls-4" d="M9.16,24.89,9,24.77c0-.1.08-.2.11-.3C9.09,24.61,9.12,24.75,9.16,24.89Z"/><path class="cls-3" d="M25.81,14.25c0,.16,0,.25,0,.25"/><path class="cls-3" d="M14.71,10.91v-.05"/><path class="cls-2" d="M14.88,24,8.69,20.91a6.94,6.94,0,0,0-2.5-2.5V16.19l4.1-2.53.1-.06,4.11-2.53.21-.13L14.8,18Z"/><path class="cls-2" d="M29.74,23.14c-.11,3.91,3.8,4.32,3.8,4.32v2.43l-5.12,4.4-.2.17-1.1.95-.24.2a.69.69,0,0,1-.13.11l-.46.41-1.17,1-1,.86-7.93,6.82a74.85,74.85,0,0,0,.41-9.28,1.09,1.09,0,0,1,0-.18,32.06,32.06,0,0,0-.95-6.72l8.85-4.9V20.91L14.88,24l-.08-6-.09-7.07,11.1,3.31,1.25.38,6.48,1.93v2.26A4.36,4.36,0,0,0,29.74,23.14Z"/><path class="cls-2" d="M16.12,6.61a10.06,10.06,0,0,0-1,2,9,9,0,0,0-.54,2.25l-4.21,2.59a17.26,17.26,0,0,1,5.73-6.82Z"/><path class="cls-2" d="M29.4,3.85a2.8,2.8,0,0,0-.92-.09h-.15a4.69,4.69,0,0,0-.64.09l-.12,0-.2,0h0L27.1,4h0l-.18.05-.25.09-.14,0,0,0-.21.08-.62.27-.1,0L25,4.91l-.17.1a11.35,11.35,0,0,0-1,.62.05.05,0,0,0,0,0l-.18.12h0a3.61,3.61,0,0,0-.35.33l-.29.3-.14.16c-.13.15-.26.3-.38.46l-.12.16a3.46,3.46,0,0,0-.22.31l-.11.15c0,.06-.07.11-.1.16l-.1.15-.09.16-.08.13a1.62,1.62,0,0,0-.1.18l-.07.13v0l-.1.19L21.2,9a.8.8,0,0,0-.08.16,2,2,0,0,1-.1.21L21,9.53c0,.05,0,.09-.05.13-.14.35-.25.68-.34,1,0,.06,0,.12,0,.18l0,.11-.05.2-.06.28,0,.16a.5.5,0,0,0,0,.12l0,.13c0,.16,0,.29-.05.4v0a.45.45,0,0,0,0,.11.13.13,0,0,0,0,.06v.06l-4.28-1.28a10.83,10.83,0,0,1,.71-2.63,10.1,10.1,0,0,1,1.66-2.8,7.78,7.78,0,0,1,.85-.88,9.61,9.61,0,0,1,2-1.37,9,9,0,0,1,3-.94,7.82,7.82,0,0,1,3.24.28A6.92,6.92,0,0,1,29.4,3.85Z"/><path class="cls-1" d="M42.84,0H5.16A5.16,5.16,0,0,0,0,5.2V42.88a5.15,5.15,0,0,0,.81,2.78,6,6,0,0,0,.42.57,5.3,5.3,0,0,0,.53.53,4.43,4.43,0,0,0,.61.46l.32.19a4.66,4.66,0,0,0,1,.4A5.08,5.08,0,0,0,5.16,48H42.84A5.16,5.16,0,0,0,48,42.88V5.2A5.16,5.16,0,0,0,42.84,0ZM10.39,13.47a17.26,17.26,0,0,1,5.73-6.82,8.89,8.89,0,0,1,.59-.82,11.21,11.21,0,0,1,.81-.93A7.62,7.62,0,0,1,23,2.58c.48,0,1.18.06,1.18.06a7.82,7.82,0,0,1,3.24.28,6.92,6.92,0,0,1,2,1,16.69,16.69,0,0,1,5.11,1.94V6h-.35a7.62,7.62,0,0,0-5.43,2.32,10.2,10.2,0,0,0-2.92,5.93l-5.59-1.67-4.28-1.28-1.22-.36h0L14.6,11l-.1.06-4.11,2.52ZM43,41.47a20.91,20.91,0,0,1-7.54-3.35A4.18,4.18,0,0,1,34.21,36c-.07-.23-.14-.47-.19-.71h0a2.19,2.19,0,0,0-.11-.51,25.09,25.09,0,0,1-.36-4.79l-5.12,4.4-.2.17-1.1,1-.24.2a.69.69,0,0,1-.13.11l-.46.41-1.17,1-1,.86-7.93,6.82-10-14.67V27.3a5,5,0,0,0,2.75-2.49H9l.21.12c0-.14-.07-.28-.1-.42a4.17,4.17,0,0,0,.21-1.33A4.67,4.67,0,0,0,8.69,21a6.94,6.94,0,0,0-2.5-2.5V16.23l4.1-2.53.1-.06,4.11-2.53.21-.13,11.1,3.31a10.16,10.16,0,0,1,2.92-5.92,7.62,7.62,0,0,1,5.43-2.32h.25l.1.06c.23.13.46.27.68.42a17.16,17.16,0,0,1,4.28,24.89C37.75,37.88,44.74,41.67,43,41.47Z"/><path class="cls-2" d="M43,41.07a20.91,20.91,0,0,1-7.54-3.35,4.18,4.18,0,0,1-1.29-2.16c-.07-.23-.14-.47-.19-.71h0a2.19,2.19,0,0,0-.11-.51,25.09,25.09,0,0,1-.36-4.79V27.1s-3.91-.41-3.8-4.32a4.36,4.36,0,0,1,3.8-4.32V16.2L27,14.27a6.75,6.75,0,0,1,2.24-5.65,12.32,12.32,0,0,1,5.21-2.38,6.05,6.05,0,0,1,.68-.11A17.16,17.16,0,0,1,39.39,31C37.67,37.48,44.66,41.27,43,41.07Z"/><path class="cls-2" d="M35.11,6.13a6.05,6.05,0,0,0-.68.11,12.32,12.32,0,0,0-5.21,2.38A6.75,6.75,0,0,0,27,14.27l-1.25-.38A10.16,10.16,0,0,1,28.65,8a7.62,7.62,0,0,1,5.43-2.32h.25l.1.06C34.66,5.84,34.89,6,35.11,6.13Z"/><path class="cls-2" d="M24.05,2.24a9,9,0,0,0-3,.94,9.61,9.61,0,0,0-2,1.37,7.78,7.78,0,0,0-.85.88,10.1,10.1,0,0,0-1.66,2.8,10.83,10.83,0,0,0-.71,2.63l-1.22-.36h0l-.11.08-.1.06-4.11,2.52v-.08l4.21-2.59a9,9,0,0,1,.54-2.25,10.06,10.06,0,0,1,1-2,8.89,8.89,0,0,1,.59-.82,11.21,11.21,0,0,1,.81-.93,7.62,7.62,0,0,1,5.43-2.32C23.35,2.18,24.05,2.24,24.05,2.24Z"/><path class="cls-2" d="M34.43,5.43v.14h-.35a7.62,7.62,0,0,0-5.43,2.32,10.2,10.2,0,0,0-2.92,5.93l-5.59-1.67v-.06a.13.13,0,0,1,0-.06.45.45,0,0,1,0-.11v0c0-.11,0-.24.05-.4l0-.13a.5.5,0,0,1,0-.12l0-.16.06-.28c0-.07,0-.13,0-.2l0-.11c0-.06,0-.12.05-.18.09-.31.2-.64.34-1,0,0,0-.08.05-.13L20.94,9a2,2,0,0,0,.1-.21.8.8,0,0,1,.08-.16l.09-.2.1-.19v0l.07-.13a1.62,1.62,0,0,1,.1-.18l.08-.13.09-.16.1-.15s.07-.1.1-.16L22,7.15a3.46,3.46,0,0,1,.22-.31l.12-.16c.12-.16.25-.31.38-.46l.14-.16.29-.3a3.61,3.61,0,0,1,.35-.33h0l.18-.12,0,0a11.35,11.35,0,0,1,1-.62l.17-.1.56-.28.1,0L26.19,4l.21-.08,0,0,.14-.05.25-.09.18,0s0,0,0,0l.25-.07h0l.2-.05.12,0a4.69,4.69,0,0,1,.64-.09h.15a2.8,2.8,0,0,1,.92.09A16.69,16.69,0,0,1,34.43,5.43Z"/><line class="cls-3" x1="14.63" y1="10.5" x2="14.52" y2="10.57"/><line class="cls-3" x1="14.73" y1="10.44" x2="14.64" y2="10.5"/><path class="cls-2" d="M24.4,20.61v2.82l-8.85,4.9-6.61-3.5c0-.14.07-.52,0-.66a4.17,4.17,0,0,0,.21-1.33,4.91,4.91,0,0,0-.58-2.29l6.19,3.19Z"/><path class="cls-3" d="M25.73,13.89c0,.16,0,.25,0,.25"/><path class="cls-3" d="M14.63,10.55V10.5"/><path class="cls-2" d="M14.8,23.68,8.61,20.55a6.94,6.94,0,0,0-2.5-2.5V15.83l4.1-2.53.1-.06,4.11-2.53.21-.13.09,7.07Z"/><path class="cls-2" d="M29.66,22.78c-.11,3.91,3.8,4.32,3.8,4.32v2.43l-5.12,4.4-.2.17-1.1.95-.24.2a.69.69,0,0,1-.13.11l-.46.41-1.17,1-1,.86L16.1,44.45a74.85,74.85,0,0,0,.41-9.28,1.09,1.09,0,0,1,0-.18,32.06,32.06,0,0,0-.95-6.72l8.85-4.9V20.55l-9.6,3.13-.08-6-.09-7.07,11.1,3.31,1.25.38,6.48,1.93v2.26A4.36,4.36,0,0,0,29.66,22.78Z"/><path class="cls-2" d="M16,6.25a10.06,10.06,0,0,0-1,2,9,9,0,0,0-.54,2.25l-4.21,2.59A17.26,17.26,0,0,1,16,6.25Z"/><path class="cls-2" d="M29.32,3.49a2.8,2.8,0,0,0-.92-.09h-.15a4.69,4.69,0,0,0-.64.09l-.12,0-.2.05h0L27,3.65s0,0,0,0l-.18,0-.25.09-.14.05,0,0L26.19,4l-.62.27-.1,0-.56.28-.17.1a11.35,11.35,0,0,0-1,.62l0,0-.18.12h0a3.61,3.61,0,0,0-.35.33l-.29.3-.14.16c-.13.15-.26.3-.38.46l-.12.16a3.46,3.46,0,0,0-.22.31l-.11.15c0,.06-.07.11-.1.16l-.1.15-.09.16-.08.13a1.62,1.62,0,0,0-.1.18l-.07.13v0l-.1.19-.09.2a.8.8,0,0,0-.08.16,2,2,0,0,1-.1.21l-.07.18c0,.05,0,.09-.05.13-.14.35-.25.68-.34,1,0,.06,0,.12-.05.18l0,.11c0,.07,0,.13,0,.2l-.06.28,0,.16a.5.5,0,0,0,0,.12l0,.13c0,.16,0,.29-.05.4v0a.45.45,0,0,0,0,.11.13.13,0,0,0,0,.06v.06l-4.28-1.28a10.83,10.83,0,0,1,.71-2.63,10.1,10.1,0,0,1,1.66-2.8,7.78,7.78,0,0,1,.85-.88,9.61,9.61,0,0,1,2-1.37,9,9,0,0,1,3-.94,7.82,7.82,0,0,1,3.24.28A6.92,6.92,0,0,1,29.32,3.49Z"/><path class="cls-2" d="M15.4,7.53a10.06,10.06,0,0,0-1,2,9,9,0,0,0-.54,2.25L9.67,14.35A17.26,17.26,0,0,1,15.4,7.53Z"/><path class="cls-2" d="M28.88,21.62c-.11,3.91,3.8,4.32,3.8,4.32v2.43l-5.12,4.4-.2.17-1.1,1-.24.2a.69.69,0,0,1-.13.11l-.46.41-1.17,1-1,.86-7.93,6.82A74.85,74.85,0,0,0,15.73,34a1.09,1.09,0,0,1,0-.18,32.06,32.06,0,0,0-1-6.72l8.85-4.9V19.39L14,22.52l-.08-6-.09-7.07L25,12.73l1.25.38L32.68,15V17.3A4.36,4.36,0,0,0,28.88,21.62Z"/><path class="cls-2" d="M35.11,6.13A.79.79,0,0,0,34.43,6a12.32,12.32,0,0,0-5.21,2.38A6.75,6.75,0,0,0,27,14l-1.25-.38a10.16,10.16,0,0,1,2.92-5.92A7.62,7.62,0,0,1,34.08,5.4h.25l.1.06C34.66,5.59,34.89,6,35.11,6.13Z"/></svg>