<svg id="Layer_1" data-name="Layer 1" xmlns="http://www.w3.org/2000/svg" viewBox="0 0 48 48"><defs><style>.cls-1{fill:#e6e7e8;}.cls-2{fill:#58595b;}.cls-3{fill:none;}.cls-4{fill:#fff;}</style></defs><title>EmptyMetalHelmetIcon</title><path class="cls-1" d="M42.84,0H5.16A5.16,5.16,0,0,0,0,5.16V42.84a5.15,5.15,0,0,0,.81,2.78,6,6,0,0,0,.42.57,5.3,5.3,0,0,0,.53.53,4.43,4.43,0,0,0,.61.46l.32.19a4.66,4.66,0,0,0,1,.4A5.08,5.08,0,0,0,5.16,48H42.84A5.16,5.16,0,0,0,48,42.84V5.16A5.16,5.16,0,0,0,42.84,0ZM43,41.43a20.91,20.91,0,0,1-7.54-3.35,4.18,4.18,0,0,1-1.29-2.16c-.07-.23-.14-.47-.19-.71h0a2.19,2.19,0,0,0-.11-.51,25.09,25.09,0,0,1-.36-4.79l-5.12,4.4-.2.17-1.1.95-.24.2a.69.69,0,0,1-.13.11l-.46.41-1.17,1-1,.86-7.93,6.82-10-14.67V27.26a5,5,0,0,0,2.75-2.49H9l.21.12c0-.14-.07-.28-.1-.42a4.17,4.17,0,0,0,.21-1.33,4.67,4.67,0,0,0-.58-2.23,6.94,6.94,0,0,0-2.5-2.5V16.19L9.8,14a27.16,27.16,0,0,1,3-4.29c.34-.41.67-.78,1-1.08a17.11,17.11,0,0,1,2.35-2,8.89,8.89,0,0,1,.59-.82,11.21,11.21,0,0,1,.81-.93A7.62,7.62,0,0,1,23,2.54c.48,0,1.18.06,1.18.06a7.82,7.82,0,0,1,3.24.28,6.92,6.92,0,0,1,2,1,16.69,16.69,0,0,1,5.11,1.94v.14h-.26l.16.09.19.11c.2.12.4.24.59.37a17.16,17.16,0,0,1,4.28,24.89C37.75,37.84,44.74,41.63,43,41.43Z"/><path class="cls-2" d="M43,41.43a20.91,20.91,0,0,1-7.54-3.35,4.18,4.18,0,0,1-1.29-2.16c-.07-.23-.14-.47-.19-.71h0a2.19,2.19,0,0,0-.11-.51,25.09,25.09,0,0,1-.36-4.79l-5.12,4.4-.2.17-1.1.95-.24.2a.69.69,0,0,1-.13.11l-.46.41-1.17,1-1,.86-7.93,6.82-10-14.67V27.26a5,5,0,0,0,2.75-2.49H9l.21.12c0-.14-.07-.28-.1-.42a4.17,4.17,0,0,0,.21-1.33,4.67,4.67,0,0,0-.58-2.23,6.94,6.94,0,0,0-2.5-2.5V16.19L9.8,14a27.16,27.16,0,0,1,3-4.29c.34-.41.67-.78,1-1.08a17.11,17.11,0,0,1,2.35-2,8.89,8.89,0,0,1,.59-.82,11.21,11.21,0,0,1,.81-.93A7.62,7.62,0,0,1,23,2.54c.48,0,1.18.06,1.18.06a7.82,7.82,0,0,1,3.24.28,6.92,6.92,0,0,1,2,1,16.68,16.68,0,0,1,4.85,2.07l.16.09.19.11c.2.12.4.24.59.37a17.16,17.16,0,0,1,4.28,24.89C37.75,37.84,44.74,41.63,43,41.43Z"/><line class="cls-3" x1="14.81" y1="10.8" x2="14.72" y2="10.86"/><path class="cls-4" d="M9.16,24.89,9,24.77c0-.1.08-.2.11-.3C9.09,24.61,9.12,24.75,9.16,24.89Z"/><path class="cls-4" d="M9.16,24.89,9,24.77c0-.1.08-.2.11-.3C9.09,24.61,9.12,24.75,9.16,24.89Z"/><path class="cls-3" d="M25.81,14.25c0,.16,0,.25,0,.25"/><path class="cls-2" d="M34.6,6.12,34.41,6l-.16-.09h.26Z"/></svg>