<svg id="Layer_1" data-name="Layer 1" xmlns="http://www.w3.org/2000/svg" viewBox="0 0 48 48"><defs><style>.cls-1{fill:#e6e7e8;}.cls-2{fill:#58595b;}.cls-3{fill:none;}</style></defs><title>EmptyShoesIcon</title><path class="cls-1" d="M42.84,0H5.16A5.16,5.16,0,0,0,0,5.16V42.84a5.17,5.17,0,0,0,.81,2.78,6,6,0,0,0,.42.57,5.3,5.3,0,0,0,.53.53,5.41,5.41,0,0,0,.61.46l.32.19a4.66,4.66,0,0,0,1,.4A5.08,5.08,0,0,0,5.16,48H42.84A5.16,5.16,0,0,0,48,42.84V5.16A5.16,5.16,0,0,0,42.84,0ZM2.06,37.25l1.63-4,2.43-4A3,3,0,0,1,7.9,30a6.15,6.15,0,0,1,1.37-1c.86-.46,1.57-.82,2.14-1.1l.69-4.55,1.72-1.08.53-12.65h0l.21-5a11.65,11.65,0,0,1,5.08-2.16c2.46-.19,5.16,3.09,5.16,3.09V37.25ZM43.42,20.68V42.12s-6.49,2.21-9.84,3.06l-.27.06.29.71S28.11,47.62,26.44,47s-4.13-.58-4.35-1.81,1.29-6.3,5.4-7.59c.34-.46.7-.91,1.05-1.31,0-.08.81-2.78,1.91-5.46V20.37A50.39,50.39,0,0,1,31,14.2c.37-1.83,4.51-5.07,4.51-5.07a15.78,15.78,0,0,1,5.72,3.18C43,14,43.37,17.93,43.42,19.73h0C43.43,20.32,43.42,20.68,43.42,20.68Z"/><path class="cls-2" d="M24.8,5.51V37.25H2.06l1.63-4,2.43-4A3,3,0,0,1,7.9,30a6.15,6.15,0,0,1,1.37-1c.86-.46,1.57-.82,2.14-1.1l.69-4.55,1.72-1.08.53-12.65h0l.21-5a11.65,11.65,0,0,1,5.08-2.16C22.1,2.23,24.8,5.51,24.8,5.51Z"/><path class="cls-2" d="M43.42,20.68V42.12s-6.49,2.21-9.84,3.06l-.27.06.29.71S28.11,47.62,26.44,47s-4.13-.58-4.35-1.81,1.29-6.3,5.4-7.59c.34-.46.7-.91,1.05-1.31,0-.08.81-2.78,1.91-5.46V20.37A50.39,50.39,0,0,1,31,14.2c.37-1.83,4.51-5.07,4.51-5.07a15.78,15.78,0,0,1,5.72,3.18C43,14,43.37,17.93,43.42,19.73h0C43.43,20.32,43.42,20.68,43.42,20.68Z"/><path class="cls-3" d="M14.35,9.59l-.11,0"/></svg>