<svg id="Layer_1" data-name="Layer 1" xmlns="http://www.w3.org/2000/svg" viewBox="0 0 47.96 47.96"><defs><style>.cls-1{fill:#e6e7e8;}.cls-2{fill:#808285;}.cls-3{fill:#58595b;}.cls-4{fill:none;}</style></defs><title>EmptyShoulderIcon</title><path class="cls-1" d="M9.59,31v0h.06Zm0,0v0h.06Zm0,0v0h.06Zm0,0v0h.06Zm0,0v0h.06Zm0,0v0h.06Zm0,0v0h.06Zm0,0v0h.06Zm0,0v0h.06Zm0,0v0h.06Zm0,0v0h.06Zm0,0v0h.06Zm0,0v0h.06Zm0,0v0h.06Zm30.63,3.77h0ZM9.59,31v0h.06Zm0,0v0h.06Zm30.63,3.77h0ZM9.59,31v0h.06Zm0,0v0h.06Zm30.63,3.77h0ZM9.59,31v0h.06Zm0,0v0h.06Zm30.63,3.77h0ZM9.59,31v0h.06ZM42.81,0H5.15A5.15,5.15,0,0,0,0,5.19V42.85a5.14,5.14,0,0,0,.81,2.77,6,6,0,0,0,.42.57,4.42,4.42,0,0,0,.53.53,4.43,4.43,0,0,0,.61.46,3.37,3.37,0,0,0,.32.19,4.66,4.66,0,0,0,1,.4A5.07,5.07,0,0,0,5.15,48H42.81A5.15,5.15,0,0,0,48,42.85v-4.5c0,.61-1.11,1.6-2.58,2a24.7,24.7,0,0,1-4.31.63L41,40.14l-1.6-.48L39,34.29l-.08-1H37.64l-.59-4,.58-.32a10.48,10.48,0,0,1-1.1.28c-2.75.48-8.24-3.82-8.24-3.82V11.68s11-1.43,12.9,2.5,3.58,11.28,3.58,11.28l-.58.34-.36.2h0s.08.19.15.41A30.59,30.59,0,0,0,46,31a.56.56,0,0,1,.07.42,2,2,0,0,1-.66.85s.1.42.27,1c.44,1.57,1.31,4.37,2,4.64a.45.45,0,0,1,.32.42V5.19A5.14,5.14,0,0,0,42.81,0ZM22.21,21.66S16.4,26,13.49,25.48a8.38,8.38,0,0,1-1.18-.29h0l.63.32-.63,4H11l-.07,1-.4,5.38-1.69.48-.12.82a28.75,28.75,0,0,1-4.55-.63c-2-.51-3.4-2-2.39-2.4.73-.27,1.64-3.08,2.1-4.64.18-.61.29-1,.29-1a1.89,1.89,0,0,1-.69-.86.46.46,0,0,1,.07-.41,30.07,30.07,0,0,0,2.1-4.58c.1-.25.15-.41.15-.41L5.4,22l-.62-.35s1.77-7.34,3.79-11.27S22.21,7.91,22.21,7.91ZM40.16,34.74h.07v0ZM9.59,31h.06l-.06,0Zm0,0v0h.06Zm30.63,3.77h0ZM9.59,31v0h.06Zm0,0v0h.06Zm30.63,3.77h0ZM9.59,31v0h.06Zm0,0v0h.06Zm30.63,3.77h0ZM9.59,31v0h.06Zm0,0v0h.06Zm0,0v0h.06Zm0,0v0h.06Zm0,0v0h.06Zm0,0v0h.06Zm0,0v0h.06Zm0,0v0h.06Zm0,0v0h.06Zm0,0v0h.06Zm0,0v0h.06Zm0,0v0h.06Zm0,0v0h.06Zm0,0v0h.06Zm0,0v0h.06Zm0,0v0h.06Z" transform="translate(0 -0.04)"/><path class="cls-2" d="M9.65,31H9.59v0Z" transform="translate(0 -0.04)"/><path class="cls-3" d="M8.57,10.42c-2,3.93-3.79,11.27-3.79,11.27L5.4,22l.37.2s0,.16-.15.41a30.07,30.07,0,0,1-2.1,4.58.46.46,0,0,0-.07.41,1.89,1.89,0,0,0,.69.86s-.11.42-.29,1c-.46,1.56-1.37,4.37-2.1,4.64-1,.38.37,1.89,2.39,2.4a28.75,28.75,0,0,0,4.55.63l.12-.82,1.69-.48.4-5.38a1.68,1.68,0,0,1-.3.15L11,29.49h1.35l.63-4-.63-.32h0a8.38,8.38,0,0,0,1.18.29c2.91.48,8.72-3.82,8.72-3.82V7.91S10.59,6.49,8.57,10.42ZM9.59,31v0l.06,0Z" transform="translate(0 -0.04)"/><path class="cls-4" d="M5.77,22.24s0,.16-.15.41A1.51,1.51,0,0,1,5.4,22Z" transform="translate(0 -0.04)"/><path class="cls-4" d="M4.14,28.5s-.11.42-.29,1a1.81,1.81,0,0,1-.55-1.42,1.36,1.36,0,0,1,.15-.47A1.89,1.89,0,0,0,4.14,28.5Z" transform="translate(0 -0.04)"/><path class="cls-4" d="M9.65,31H9.59v0Z" transform="translate(0 -0.04)"/><path class="cls-3" d="M11,29.49l-.07,1a1.68,1.68,0,0,1-.3.15Z" transform="translate(0 -0.04)"/><path class="cls-4" d="M11.88,29.49a2.11,2.11,0,0,1-1,1l.07-1Z" transform="translate(0 -0.04)"/><path class="cls-2" d="M40.23,34.75h0Z" transform="translate(0 -0.04)"/><path class="cls-3" d="M47.64,37.93c-.68-.27-1.55-3.07-2-4.64-.17-.61-.27-1-.27-1a2,2,0,0,0,.66-.85A.56.56,0,0,0,46,31a30.59,30.59,0,0,1-2-4.57c-.07-.22-.13-.36-.15-.41h0l.36-.2.58-.34s-1.67-7.35-3.58-11.28-12.9-2.5-12.9-2.5V25.43s5.49,4.3,8.24,3.82a10.48,10.48,0,0,0,1.1-.28l-.58.32.59,4h1.27l.36,1.19L39,34.29l.37,5.37,1.6.48.11.82a24.7,24.7,0,0,0,4.31-.63C46.85,40,48,39,48,38.35A.45.45,0,0,0,47.64,37.93Zm-7.48-3.19h.06v0Z" transform="translate(0 -0.04)"/><path class="cls-4" d="M44.19,25.8a1.75,1.75,0,0,1-.21.62c-.07-.22-.13-.36-.15-.41h0Z" transform="translate(0 -0.04)"/><path class="cls-3" d="M39.27,34.44,39,34.29l-.08-1Z" transform="translate(0 -0.04)"/><path class="cls-4" d="M39,34.29a2,2,0,0,1-.93-1h.85Z" transform="translate(0 -0.04)"/><path class="cls-4" d="M40.23,34.75h0Z" transform="translate(0 -0.04)"/><path class="cls-4" d="M46.18,31.88a1.82,1.82,0,0,1-.53,1.41c-.17-.61-.27-1-.27-1a2,2,0,0,0,.66-.85A1.43,1.43,0,0,1,46.18,31.88Z" transform="translate(0 -0.04)"/></svg>