<svg id="Layer_1" data-name="Layer 1" xmlns="http://www.w3.org/2000/svg" viewBox="0 0 48 48"><defs><style>.cls-1{fill:#e6e7e8;}.cls-2{fill:#c49a6c;}.cls-3{fill:#a97c50;}.cls-4{fill:#8b5e3c;}.cls-5{fill:#754c29;}</style></defs><title>LeatherArm</title><path class="cls-1" d="M48,5.16V42.84A5.16,5.16,0,0,1,42.84,48H5.16a5.08,5.08,0,0,1-1.52-.23,4.66,4.66,0,0,1-1-.4l-.32-.19a4.43,4.43,0,0,1-.61-.46,5.3,5.3,0,0,1-.53-.53,6,6,0,0,1-.42-.57A5.15,5.15,0,0,1,0,42.84V5.16A5.16,5.16,0,0,1,5.16,0H42.84A5.16,5.16,0,0,1,48,5.16Z" transform="translate(0 0)"/><path class="cls-2" d="M34,41.19l0,2.51c-2.3-.21-5-1-5.49-2.68a9.73,9.73,0,0,1-.19-1.44c1.21,1,3.43,1.44,5.41,1.6Z" transform="translate(0 0)"/><path class="cls-3" d="M38.26,38.56,38,41S36.27,43.91,34,43.7l0-2.51C36.3,41.17,38.06,38.85,38.26,38.56Z" transform="translate(0 0)"/><path class="cls-2" d="M34.3,3.14l-.1,12.52H33V14.12H27c-.11-2.9-.18-4.83-.18-4.83Z" transform="translate(0 0)"/><polygon class="cls-3" points="41.09 9.29 40.63 14.12 34.85 14.12 34.85 15.65 34.2 15.65 34.3 3.14 41.09 9.29"/><path class="cls-4" d="M34.2,15.66,34,41.19H33.7c-2-.16-4.2-.64-5.41-1.6-.41-4.52-1-18.11-1.26-25.46H33v1.54Z" transform="translate(0 0)"/><path class="cls-5" d="M40.63,14.12,38.26,38.56c-.2.29-2,2.61-4.27,2.63l.21-25.53h.65V14.12Z" transform="translate(0 0)"/><path class="cls-2" d="M16.25,4.3l0,2.51c-2.31,0-4.07,2.34-4.27,2.63L12.2,7S14,4.1,16.25,4.3Z" transform="translate(0 0)"/><path class="cls-3" d="M21.93,8.42c-1.21-1-3.42-1.44-5.41-1.6h-.29l0-2.51c2.3.21,5,1,5.49,2.68A8.47,8.47,0,0,1,21.93,8.42Z" transform="translate(0 0)"/><polygon class="cls-2" points="16.02 32.34 15.92 44.86 9.13 38.71 9.59 33.88 15.37 33.88 15.37 32.34 16.02 32.34"/><path class="cls-3" d="M23.37,38.71l-7.45,6.15L16,32.35h1.22v1.53h6C23.3,36.79,23.37,38.71,23.37,38.71Z" transform="translate(0 0)"/><path class="cls-5" d="M17.24,33.88V32.35H16l.21-25.54h.29c2,.16,4.2.64,5.41,1.6.41,4.53,1,18.12,1.26,25.46Z" transform="translate(0 0)"/><path class="cls-4" d="M16.23,6.81,16,32.35h-.65v1.53H9.59L12,9.44C12.16,9.15,13.92,6.83,16.23,6.81Z" transform="translate(0 0)"/></svg>