<svg id="Layer_1" data-name="Layer 1" xmlns="http://www.w3.org/2000/svg" viewBox="0 0 48 48"><defs><style>.cls-1{fill:#e6e7e8;}.cls-2{fill:#603913;}.cls-3{fill:#a97c50;}.cls-4{fill:none;}.cls-5{fill:#8b5e3c;}</style></defs><title>LeatherShoulder</title><path class="cls-1" d="M48,5.16V42.84A5.16,5.16,0,0,1,42.84,48H5.16a5.08,5.08,0,0,1-1.52-.23,4.66,4.66,0,0,1-1-.4l-.32-.19a4.43,4.43,0,0,1-.61-.46,5.3,5.3,0,0,1-.53-.53,6,6,0,0,1-.42-.57A5.15,5.15,0,0,1,0,42.84V5.16A5.16,5.16,0,0,1,5.16,0H42.84A5.16,5.16,0,0,1,48,5.16Z" transform="translate(0 0)"/><path class="cls-2" d="M17.29,24.29l-2.94.42C11.4,25.14,7.29,23,7.29,23c-3.66-.54-2.93-3.18-2.93-3.18s4.87-.3,7.8-.75,3.89-5.58,3.89-5.58h0C16.08,13.8,16.46,19.14,17.29,24.29Z" transform="translate(0 0)"/><path class="cls-3" d="M42.92,28.93,27.54,40.24S19.74,35.93,18.08,30a52.77,52.77,0,0,1-1.16-5.67h0l-1.2-10.82h0l2.58-.23A96.39,96.39,0,0,0,20.53,28c1.65,6,9.46,10.29,9.46,10.29l12.76-9.4Z" transform="translate(0 0)"/><path class="cls-4" d="M16.92,24.29h0c-.81-5.15-1.18-10.49-1.2-10.82Z" transform="translate(0 0)"/><path class="cls-4" d="M16.92,24.29h0c-.81-5.15-1.18-10.49-1.2-10.82Z" transform="translate(0 0)"/><path class="cls-4" d="M36.64,11.56c-.08-.7-.11-1.3-.12-1.76h.09S36.58,10.48,36.64,11.56Z" transform="translate(0 0)"/><path class="cls-5" d="M42.75,28.85,30,38.25S22.18,33.94,20.53,28A96.39,96.39,0,0,1,18.3,13.23l15.87-1.45s-.24,5.67,2.12,9.88S41.1,28.05,42.75,28.85Z" transform="translate(0 0)"/><path class="cls-3" d="M45.36,26.94l-2.29,1.69-.32.22c-1.65-.8-4.17-3.11-6.46-7.19s-2.12-9.88-2.12-9.88l1.55-1.91.81-1s0,.34,0,.92,0,1.06.12,1.76h0a19.64,19.64,0,0,0,2.1,8.1c.47.83.94,1.59,1.42,2.28A14.48,14.48,0,0,0,45.36,26.94Z" transform="translate(0 0)"/></svg>