<svg id="Layer_1" data-name="Layer 1" xmlns="http://www.w3.org/2000/svg" viewBox="0 0 48 48"><defs><style>.cls-1{fill:#e6e7e8;}.cls-2{fill:#8b5e3c;}.cls-3{fill:#c49a6c;}.cls-4{fill:#603913;}.cls-5{fill:none;}</style></defs><title>LeatherShoes</title><path class="cls-1" d="M48,5.16V42.84A5.16,5.16,0,0,1,42.84,48H5.16a5.08,5.08,0,0,1-1.52-.23,4.66,4.66,0,0,1-1-.4l-.32-.19a4.43,4.43,0,0,1-.61-.46,5.3,5.3,0,0,1-.53-.53,6,6,0,0,1-.42-.57A5.15,5.15,0,0,1,0,42.84V5.16A5.16,5.16,0,0,1,5.16,0H42.84A5.16,5.16,0,0,1,48,5.16Z" transform="translate(0 0)"/><path class="cls-2" d="M25.5,13.59V29s-3.67-.45-4.85,2.08a10.64,10.64,0,0,0-1,4.83l-16.51.83s.95-6.19,3.67-9.27a18.49,18.49,0,0,1,7-4.51l.33-9.23a34.61,34.61,0,0,0,5.58.57C21.31,14.23,24,13.8,25.5,13.59Z" transform="translate(0 0)"/><path class="cls-2" d="M43.68,32.44a2,2,0,0,0-1.66.24,2.43,2.43,0,0,0-.9,1.28c-.72,2.13-.81,3.79,0,4.68a35.82,35.82,0,0,1-4,2.44c-2.25,1.05-8,.45-10.65.39-1.56,0,.57-3.86,2.51-6.9,1.27-2,2.46-3.65,2.46-3.65l.1-18.67h0c.93-.07,2.61,2.2,2.26,1.1S36.14,10,36.14,10c.31,0,.73,0,1.21,0a3.65,3.65,0,0,1,1.16,2.4,13.18,13.18,0,0,1,0,2.47L43,14Z" transform="translate(0 0)"/><path class="cls-3" d="M43.83,36.74s-1.22.9-2.71,1.9c-.81-.89-.72-2.55,0-4.68a2.43,2.43,0,0,1,.9-1.28,2,2,0,0,1,1.66-.24Z" transform="translate(0 0)"/><path class="cls-4" d="M26.33,13.47l-.83.12c-1.46.21-4.19.64-5.8.71a34.61,34.61,0,0,1-5.58-.57c-.89-.14-1.52-.26-1.52-.26L13.08,8h1.24l11.18.74h.83S27.15,13.38,26.33,13.47Z" transform="translate(0 0)"/><path class="cls-4" d="M33.78,13.35c.35,1.1-1.33-1.17-2.26-1.1h0c-.93.07-.69-.46-2,.16l2-2.95h.22l.24,0h.09l.18,0,.13,0,.15,0h.13l.34.05h.22l.15,0,.36.05.54.06,1.24.13h.17L36,10h.14S33.42,12.25,33.78,13.35Z" transform="translate(0 0)"/><path class="cls-5" d="M36.14,10H36l-.31,0h-.17l-1.24-.13-.54-.06-.36-.05-.15,0H33l-.34-.05h-.13l-.15,0-.13,0-.18,0H32l-.24,0H31.6Z" transform="translate(0 0)"/><path class="cls-4" d="M44.66,13.65,43,14l-4.53.91a13.18,13.18,0,0,0,0-2.47A3.65,3.65,0,0,0,37.35,10c2.14,0,5.54-.32,5.54-.32s1.18.14,1.77,2.2S44.66,13.65,44.66,13.65Z" transform="translate(0 0)"/><path class="cls-5" d="M37.35,10l0,0" transform="translate(0 0)"/><path class="cls-3" d="M25.5,29v6.62l-5.85.29h0a10.64,10.64,0,0,1,1-4.83C21.83,28.55,25.5,29,25.5,29Z" transform="translate(0 0)"/><path class="cls-5" d="M44.31,40.94" transform="translate(0 0)"/></svg>