<svg id="Layer_1" data-name="Layer 1" xmlns="http://www.w3.org/2000/svg" viewBox="0 0 47.96 47.96"><defs><style>.cls-1{fill:#e6e7e8;}.cls-2{fill:#808285;}.cls-3{fill:none;}.cls-4{fill:#a7a9ac;}.cls-5{fill:#6d6e71;}</style></defs><title>MetalShoulderIcon</title><path class="cls-1" d="M48,5.19V42.85A5.15,5.15,0,0,1,42.81,48H5.15a5.07,5.07,0,0,1-1.51-.23,4.66,4.66,0,0,1-1-.4,3.37,3.37,0,0,1-.32-.19,4.43,4.43,0,0,1-.61-.46,4.42,4.42,0,0,1-.53-.53,6,6,0,0,1-.42-.57A5.14,5.14,0,0,1,0,42.85V5.19A5.15,5.15,0,0,1,5.15,0H42.81A5.14,5.14,0,0,1,48,5.19Z" transform="translate(0 -0.04)"/><path class="cls-2" d="M9.59,31l.06,0H9.59Z" transform="translate(0 -0.04)"/><path class="cls-2" d="M11,29.49l-.07,1a1.68,1.68,0,0,1-.3.15Z" transform="translate(0 -0.04)"/><path class="cls-3" d="M9.59,31l-.78,5.38V31.1A6.37,6.37,0,0,0,9.59,31Z" transform="translate(0 -0.04)"/><path class="cls-3" d="M11,29.49l-.37,1.18a4.93,4.93,0,0,1-.94.31h0l-.06,0c-.24-.06-.5-.13-.78-.22v-1Z" transform="translate(0 -0.04)"/><path class="cls-4" d="M22.21,7.91V21.66S16.4,26,13.49,25.48a8.38,8.38,0,0,1-1.18-.29l-.07,0h0l-.14,0L11.79,25,11.62,25l-.37-.14-.19-.07-.25-.1-.34-.13-1-.44L9.24,24,9,23.87c-1.26-.58-2.44-1.2-3.23-1.63h0L5.4,22l-.62-.35s1.77-7.34,3.79-11.27S22.21,7.91,22.21,7.91Z" transform="translate(0 -0.04)"/><path class="cls-5" d="M10.9,30.52l-.4,5.38-1.69.48h0L9.59,31h.07a4.93,4.93,0,0,0,.94-.31A1.68,1.68,0,0,0,10.9,30.52Z" transform="translate(0 -0.04)"/><path class="cls-4" d="M12.32,25.2l-.84,2.66L11,29.49l-.37,1.18a4.93,4.93,0,0,1-.94.31h0l-.06,0c-.24-.06-.5-.13-.78-.22a18.76,18.76,0,0,1-4-1.8c-.24-.15-.45-.3-.64-.44a1.89,1.89,0,0,1-.69-.86.46.46,0,0,1,.07-.41,30.07,30.07,0,0,0,2.1-4.58,6.16,6.16,0,0,0,3.73,2.27,8.25,8.25,0,0,0,2.89.25h0l.07,0Z" transform="translate(0 -0.04)"/><path class="cls-4" d="M9.59,31l-.78,5.38-.12.83a28.75,28.75,0,0,1-4.55-.63c-2-.51-3.4-2-2.39-2.4.73-.27,1.64-3.08,2.1-4.64a5.84,5.84,0,0,0,3.48,1.53,8.23,8.23,0,0,0,1.48,0A6.37,6.37,0,0,0,9.59,31Z" transform="translate(0 -0.04)"/><polygon class="cls-2" points="12.95 25.48 12.32 29.45 10.97 29.45 12.32 25.16 12.95 25.48"/><path class="cls-5" d="M12.24,25.17a8.25,8.25,0,0,1-2.89-.25,6.16,6.16,0,0,1-3.73-2.27c.1-.25.15-.41.15-.41h0c.79.43,2,1.05,3.23,1.63l.23.1.22.11,1,.44.34.13.25.1.19.07.37.14.17.06.31.11Z" transform="translate(0 -0.04)"/><path class="cls-3" d="M14.36,23.93c-.18.68-1,1.11-2.12,1.24h0l-.14,0L11.79,25,11.62,25l-.37-.14-.19-.07-.25-.1-.34-.13-1-.44L9.24,24,9,23.87c-1.26-.58-2.44-1.2-3.23-1.63h0s0,.16-.15.41A1.51,1.51,0,0,1,5.4,22a1.07,1.07,0,0,1,0-.4c.3-1.17,2.54-1.61,5-1S14.66,22.76,14.36,23.93Z" transform="translate(0 -0.04)"/><path class="cls-5" d="M9.59,31v0a6.37,6.37,0,0,1-.78.11,8.23,8.23,0,0,1-1.48,0,5.84,5.84,0,0,1-3.48-1.53c.18-.61.29-1,.29-1,.19.14.4.29.64.44a18.76,18.76,0,0,0,4,1.8C9.09,30.83,9.35,30.9,9.59,31Z" transform="translate(0 -0.04)"/><path class="cls-3" d="M12,29.18a1.73,1.73,0,0,1-.07.31,2.11,2.11,0,0,1-1,1,1.68,1.68,0,0,1-.3.15,4.93,4.93,0,0,1-.94.31H9.59v0c-.24-.06-.5-.13-.78-.22a18.76,18.76,0,0,1-4-1.8c-.24-.15-.45-.3-.64-.44,0,0-.11.42-.29,1a1.81,1.81,0,0,1-.55-1.42,1.36,1.36,0,0,1,.15-.47C4,26.59,5.83,26,7.92,26.23a5.64,5.64,0,0,1,3.56,1.63A1.7,1.7,0,0,1,12,29.18Z" transform="translate(0 -0.04)"/><path class="cls-2" d="M40.22,34.73h0Z" transform="translate(0 -0.04)"/><path class="cls-2" d="M38.91,33.25l.08,1,.28.15Z" transform="translate(0 -0.04)"/><path class="cls-3" d="M40.23,34.75,41,40.13V34.86A5.32,5.32,0,0,1,40.23,34.75Z" transform="translate(0 -0.04)"/><path class="cls-3" d="M38.91,33.25l.36,1.19a4.22,4.22,0,0,0,.89.3h.06l.74-.22v-1Z" transform="translate(0 -0.04)"/><path class="cls-4" d="M28.29,11.68V25.43s5.49,4.3,8.24,3.82A8.87,8.87,0,0,0,37.65,29l.07,0h0l.12,0,.3-.11a1.15,1.15,0,0,0,.17-.06l.34-.13.18-.07.24-.1.32-.14,1-.44.21-.1.21-.11c1.19-.58,2.31-1.2,3.06-1.62h0l.36-.2.58-.34s-1.67-7.35-3.58-11.28S28.29,11.68,28.29,11.68Z" transform="translate(0 -0.04)"/><path class="cls-5" d="M39,34.29l.37,5.37,1.6.48h0l-.73-5.38h-.07a4.22,4.22,0,0,1-.89-.3Z" transform="translate(0 -0.04)"/><path class="cls-4" d="M37.64,29l.79,2.66.48,1.63.36,1.19a4.22,4.22,0,0,0,.89.3h.06l.74-.22a17.52,17.52,0,0,0,3.81-1.8,6.45,6.45,0,0,0,.61-.45,2,2,0,0,0,.66-.85A.56.56,0,0,0,46,31a30.59,30.59,0,0,1-2-4.57,5.84,5.84,0,0,1-3.53,2.26,7.4,7.4,0,0,1-2.73.25h0l-.07,0Z" transform="translate(0 -0.04)"/><path class="cls-4" d="M40.23,34.75,41,40.13l.11.83a24.7,24.7,0,0,0,4.31-.63c1.92-.5,3.22-2,2.26-2.4-.68-.27-1.55-3.07-2-4.64a5.3,5.3,0,0,1-3.29,1.53,6,6,0,0,1-1.4,0A5.32,5.32,0,0,1,40.23,34.75Z" transform="translate(0 -0.04)"/><polygon class="cls-2" points="37.05 29.25 37.64 33.21 38.91 33.21 37.64 28.92 37.05 29.25"/><path class="cls-5" d="M37.72,28.93a7.4,7.4,0,0,0,2.73-.25A5.84,5.84,0,0,0,44,26.42L43.83,26h0c-.75.42-1.87,1-3.06,1.62l-.21.11-.21.1-1,.44-.32.14-.24.1-.18.07-.34.13a1.15,1.15,0,0,1-.17.06l-.3.11Z" transform="translate(0 -0.04)"/><path class="cls-3" d="M35.71,27.7c.17.67.94,1.11,2,1.23h0l.12,0,.3-.11a1.15,1.15,0,0,0,.17-.06l.34-.13.18-.07.24-.1.32-.14,1-.44.21-.1.21-.11c1.19-.58,2.31-1.2,3.06-1.62h0l.15.42a1.75,1.75,0,0,0,.21-.62,1.29,1.29,0,0,0,0-.39c-.28-1.18-2.41-1.62-4.74-1S35.43,26.52,35.71,27.7Z" transform="translate(0 -0.04)"/><path class="cls-5" d="M40.22,34.73v0a5.32,5.32,0,0,0,.73.11,6,6,0,0,0,1.4,0,5.3,5.3,0,0,0,3.29-1.53c-.17-.61-.27-1-.27-1a6.45,6.45,0,0,1-.61.45A17.52,17.52,0,0,1,41,34.51Z" transform="translate(0 -0.04)"/><path class="cls-3" d="M38,32.94a1.55,1.55,0,0,0,.07.31,2,2,0,0,0,.93,1l.28.15a4.22,4.22,0,0,0,.89.3h.07v0l.74-.22a17.52,17.52,0,0,0,3.81-1.8,6.45,6.45,0,0,0,.61-.45s.1.42.27,1a1.82,1.82,0,0,0,.53-1.41,1.43,1.43,0,0,0-.14-.47c-.51-1.06-2.26-1.67-4.24-1.41a5.22,5.22,0,0,0-3.37,1.62A1.8,1.8,0,0,0,38,32.94Z" transform="translate(0 -0.04)"/></svg>