<svg id="Layer_1" data-name="Layer 1" xmlns="http://www.w3.org/2000/svg" viewBox="0 0 48 48"><defs><style>.cls-1{fill:#e6e7e8;}.cls-2,.cls-6{fill:none;}.cls-3{fill:#939598;}.cls-4{fill:#bcbec0;}.cls-5{fill:#231f20;}.cls-6{stroke:#6d6e71;stroke-miterlimit:10;stroke-width:5px;}</style></defs><title>MetalChestIcon</title><path class="cls-1" d="M48,5.16V42.84A5.16,5.16,0,0,1,42.84,48H5.16a5.08,5.08,0,0,1-1.52-.23,4.66,4.66,0,0,1-1-.4l-.32-.19a4.43,4.43,0,0,1-.61-.46,5.3,5.3,0,0,1-.53-.53,6,6,0,0,1-.42-.57A5.15,5.15,0,0,1,0,42.84V5.16A5.16,5.16,0,0,1,5.16,0H42.84A5.16,5.16,0,0,1,48,5.16Z" transform="translate(0 0)"/><path class="cls-2" d="M42.57,24.24c0-.16-.08-.33-.11-.5A4.05,4.05,0,0,1,42.57,24.24Z" transform="translate(0 0)"/><path class="cls-3" d="M38.49,37.32V18.91a4.89,4.89,0,0,1-.54,0c-2.92,0-5.29-3-5.29-6.66a8.06,8.06,0,0,1,.78-3.49A16.39,16.39,0,0,1,24,11.4a18,18,0,0,1-8-1.72,10.7,10.7,0,0,1,.14,1.72c0,4.17-2.34,7.54-5.22,7.54h-.35V38.41c.37.2.78.39,1.22.58a34.73,34.73,0,0,0,12.71,2.08A34.79,34.79,0,0,0,37.27,39c.44-.19.85-.38,1.22-.58Z" transform="translate(0 0)"/><path class="cls-4" d="M40,40.62c.3.56.46,1.07.27,1.27-.55.57-6,2.18-9.75,3s-8.1.41-11.4,0-9.88-2.74-9.88-2.74L9.62,41l1-2.62c.37.2.78.39,1.22.58a34.73,34.73,0,0,0,12.71,2.08A34.79,34.79,0,0,0,37.27,39c.44-.19.85-.38,1.22-.58Z" transform="translate(0 0)"/><path class="cls-4" d="M38.49,16.47v2.44a4.89,4.89,0,0,1-.54,0c-2.92,0-5.29-3-5.29-6.66a8.06,8.06,0,0,1,.78-3.49A16.39,16.39,0,0,1,24,11.4a18,18,0,0,1-8-1.72,10.7,10.7,0,0,1,.14,1.72c0,4.17-2.34,7.54-5.22,7.54h-.35V16.61l.06-.19h.22c2,0,3.57-2,3.57-4.44a4.87,4.87,0,0,0-1.34-3.46l.47-.59,1.25-1.59.85-1.07c.54,1.9,4.18,3.37,8.58,3.37,4.12,0,7.56-1.28,8.44-3h0a2.75,2.75,0,0,0,.15-.36l1.59,2,.28.35.59.74.24.62a5,5,0,0,0-1,3c0,2.45,1.6,4.44,3.57,4.44h.28Z" transform="translate(0 0)"/><path class="cls-5" d="M32.72,5.65c-.88,1.72-4.32,3-8.44,3-4.4,0-8-1.47-8.58-3.37A13.91,13.91,0,0,0,21.54,7.1c3.3.22,3.94.7,6.78,0A24.66,24.66,0,0,0,32.72,5.65Z" transform="translate(0 0)"/><path class="cls-6" d="M9.62,41a62.85,62.85,0,0,0,9.26,2.53c3.3.41,7.69.82,11.4,0S39.1,41.23,40,40.62" transform="translate(0 0)"/></svg>