<svg id="Layer_1" data-name="Layer 1" xmlns="http://www.w3.org/2000/svg" viewBox="0 0 48 48"><defs><style>.cls-1{fill:#e6e7e8;}.cls-2{fill:#a97c50;}.cls-3{fill:#9f5500;}.cls-4{fill:#bcbec0;}.cls-5{fill:#939598;}.cls-6{fill:none;}</style></defs><title>SpearIcon</title><path class="cls-1" d="M48,5.16V42.84A5.16,5.16,0,0,1,42.84,48H5.16a5.1,5.1,0,0,1-2.79-.82,4.43,4.43,0,0,1-.61-.46,5.3,5.3,0,0,1-.53-.53A5.13,5.13,0,0,1,0,42.84V5.16A5.16,5.16,0,0,1,5.16,0H42.84A5.16,5.16,0,0,1,48,5.16Z" transform="translate(0 0)"/><path class="cls-2" d="M25.21,24.35,2.37,47.18a4.43,4.43,0,0,1-.61-.46L24.67,23.81Z" transform="translate(0 0)"/><path class="cls-3" d="M26.74,22.82l-1.53,1.53-.54-.54L1.76,46.72a5.3,5.3,0,0,1-.53-.53L24.14,23.28l1.53-1.53Z" transform="translate(0 0)"/><polygon class="cls-4" points="37.17 18.28 34.22 15.33 43.16 6.4 37.17 18.28"/><polygon class="cls-5" points="43.16 6.4 34.22 15.33 30.2 11.31 40.51 6.13 44.24 4.24 43.16 6.4"/><polygon class="cls-5" points="24.14 23.28 24.67 23.81 25.21 24.35 26.74 22.82 34.22 15.33 36.77 12.79 38.33 10.15 38.06 10.31 32.51 13.61 28.25 16.14 25.71 17.65 21.19 20.33 21.61 20.75 24.14 23.28"/><polygon class="cls-4" points="28.16 27.29 30.81 22.74 32.3 20.18 34.8 15.91 34.87 15.98 32.35 20.23 30.84 22.77 28.16 27.29"/><polygon class="cls-5" points="26.82 14.7 22.27 16.13 24.79 16.73 26.82 14.7"/><path class="cls-4" d="M36.32,26.23C34.5,28.05,32,28.53,30.8,27.3a2.21,2.21,0,0,1-.47-.7,3.06,3.06,0,0,0,1.4.23,4.86,4.86,0,0,0,2.36-.8,6.79,6.79,0,0,0,.83-.61l.3-.29.28-.3a6,6,0,0,0,.62-.83,4.86,4.86,0,0,0,.8-2.36,3.06,3.06,0,0,0-.23-1.4,2.21,2.21,0,0,1,.7.47C38.62,21.94,38.14,24.41,36.32,26.23Z" transform="translate(0 0)"/><rect class="cls-5" x="26.38" y="14.88" width="2.87" height="5.68" transform="translate(-4.39 24.86) rotate(-45)"/><path class="cls-5" d="M35.5,24.83l-.58.59a6.79,6.79,0,0,1-.83.61,4.86,4.86,0,0,1-2.36.8l1.58-1.58-2.5-2.5,1.49-2.56,3,3,1.58-1.58a4.86,4.86,0,0,1-.8,2.36A6,6,0,0,1,35.5,24.83Z" transform="translate(0 0)"/><path class="cls-5" d="M33.73,15.12Z" transform="translate(0 0)"/><line class="cls-6" x1="43.16" y1="6.4" x2="44.78" y2="4.78"/><polyline class="cls-6" points="34.22 15.33 32.51 13.61 30.2 11.31"/><polygon class="cls-4" points="27.93 27.07 28.16 27.29 30.81 22.74 32.3 20.18 34.8 15.91 34.22 15.33 26.74 22.82 25.21 24.35 27.93 27.07"/><polyline class="cls-6" points="36.41 13.14 38.06 10.31 40.51 6.13 42.58 2.58"/></svg>