<svg id="Layer_1" data-name="Layer 1" xmlns="http://www.w3.org/2000/svg" viewBox="0 0 48 48"><defs><style>.cls-1{fill:#e6e7e8;}.cls-2{fill:#939598;}.cls-3{fill:#8b5e3c;}.cls-4,.cls-6{fill:none;stroke-linecap:round;stroke-miterlimit:10;stroke-width:2px;}.cls-4{stroke:#bcbec0;}.cls-5{fill:#f7941d;}.cls-6{stroke:#a97c50;}.cls-7{fill:#009444;}</style></defs><title>BowIcon</title><path class="cls-1" d="M48,5.16V42.84A5.16,5.16,0,0,1,42.84,48H5.16a5.08,5.08,0,0,1-1.52-.23,4.66,4.66,0,0,1-1-.4l-.32-.19a4.43,4.43,0,0,1-.61-.46,5.3,5.3,0,0,1-.53-.53,6,6,0,0,1-.42-.57A5.15,5.15,0,0,1,0,42.84V5.16A5.16,5.16,0,0,1,5.16,0H42.84A5.16,5.16,0,0,1,48,5.16Z" transform="translate(0 0)"/><polygon class="cls-2" points="39.79 18.73 36.22 15.17 42.65 12.3 39.79 18.73"/><polygon class="cls-2" points="39.79 18.73 36.22 15.17 42.65 12.3 39.79 18.73"/><polygon class="cls-3" points="13.63 41.77 15.89 41.16 14.23 39.51 13.63 41.77"/><line class="cls-4" x1="43.02" y1="4.83" x2="6.24" y2="41.61"/><ellipse class="cls-5" cx="25.63" cy="14.88" rx="3.43" ry="1.38" transform="translate(-3.97 13.35) rotate(-27.18)"/><ellipse class="cls-5" cx="18.31" cy="22.2" rx="3.43" ry="1.36" transform="translate(-10.24 25.77) rotate(-57.61)"/><ellipse class="cls-5" cx="21.47" cy="18.2" rx="2.68" ry="1.37" transform="translate(-6.58 20.51) rotate(-45)"/><path class="cls-6" d="M43,4.83s-3.14,3-5,4.41-11.53,1.69-18.15,8.65S16,32.1,10.55,37.3s-4.31,4.31-4.31,4.31" transform="translate(0 0)"/><rect class="cls-3" x="26.19" y="11.82" width="1.44" height="33.49" transform="translate(28.08 -10.66) rotate(45)"/><polygon class="cls-7" points="15.73 38.72 15.72 36.66 23.7 30.75 15.73 38.72"/><polygon class="cls-7" points="16.75 39.73 24.72 31.76 18.91 39.86 16.75 39.73"/></svg>