<svg id="Layer_1" data-name="Layer 1" xmlns="http://www.w3.org/2000/svg" viewBox="0 0 48 48"><defs><style>.cls-1{fill:#e6e7e8;}.cls-2{fill:#58595b;}</style></defs><title>EmptyArmsIcon</title><path class="cls-1" d="M42.84,0H5.16A5.16,5.16,0,0,0,0,5.16V42.84a5.15,5.15,0,0,0,.81,2.78,6,6,0,0,0,.42.57,5.3,5.3,0,0,0,.53.53,4.43,4.43,0,0,0,.61.46l.32.19a4.66,4.66,0,0,0,1,.4A5.08,5.08,0,0,0,5.16,48H42.84A5.16,5.16,0,0,0,48,42.84V5.16A5.16,5.16,0,0,0,42.84,0ZM15.37,42.35c-3.34.07-9.5-2-9.5-2L8.25,31.6l-1.38-.25,1.72-9a4.28,4.28,0,0,1-.81-.26c-.91-.47,1.37-11.56,1.37-11.56s4.19-1.86,6.22-1.89h.15c2,.07,5.62,1.88,5.62,1.88l2,11.28-1,.28,1.72,9s-.94.25-2.24.55h1.48l3.34,8.71S18.71,42.28,15.37,42.35Zm26-23.85,1.37.25-1.71,9h0a4.28,4.28,0,0,1,.8.25c.91.47-1.37,11.56-1.37,11.56s-4.18,1.87-6.22,1.89h-.15c-2-.07-5.62-1.89-5.62-1.89l-2-11.27.95-.29L25.7,19.05l.88-.23-.12-.32L23.12,9.79s7.74-2,11.08-2,9.5,2,9.5,2Z"/><path class="cls-2" d="M26.46,40.31s-7.75,2-11.09,2-9.5-2-9.5-2L8.25,31.6l-1.38-.25,1.72-9a4.28,4.28,0,0,1-.81-.26c-.91-.47,1.37-11.56,1.37-11.56s4.19-1.86,6.22-1.89h.15c2,.07,5.62,1.88,5.62,1.88l2,11.28-1,.28,1.72,9s-.94.25-2.24.55h1.48Z"/><path class="cls-2" d="M41,27.73h0a4.28,4.28,0,0,1,.8.25c.91.47-1.37,11.56-1.37,11.56s-4.18,1.87-6.22,1.89h-.15c-2-.07-5.62-1.89-5.62-1.89l-2-11.27.95-.29L25.7,19.05l.88-.23-.12-.32L23.12,9.79s7.74-2,11.08-2,9.5,2,9.5,2L41.33,18.5l1.37.25Z"/></svg>