<svg id="Layer_1" data-name="Layer 1" xmlns="http://www.w3.org/2000/svg" viewBox="0 0 48 48"><defs><style>.cls-1{fill:#e6e7e8;}.cls-2{fill:#939598;}.cls-3{fill:#8b5e3c;}.cls-4{fill:#603913;}.cls-5{fill:#9b8579;}.cls-6,.cls-7{fill:none;stroke-miterlimit:10;stroke-width:0.75px;}.cls-6{stroke:#3c2415;}.cls-7{stroke:#c49a6c;}</style></defs><title>LeatherVest</title><path class="cls-1" d="M48,5.16V42.84A5.16,5.16,0,0,1,42.84,48H5.16a5.08,5.08,0,0,1-1.52-.23,4.66,4.66,0,0,1-1-.4l-.32-.19a4.43,4.43,0,0,1-.61-.46,5.3,5.3,0,0,1-.53-.53,6,6,0,0,1-.42-.57A5.15,5.15,0,0,1,0,42.84V5.16A5.16,5.16,0,0,1,5.16,0H42.84A5.16,5.16,0,0,1,48,5.16Z" transform="translate(0 0)"/><path class="cls-2" d="M12.45,42.56h-.29v-.14Z" transform="translate(0 0)"/><path class="cls-3" d="M37,40v2.39l-.3.14c-2.6,1.22-7,2-12.12,2s-9.52-.8-12.12-2l-.29-.14V40.17a51.24,51.24,0,0,0,12.13,1.35A50.37,50.37,0,0,0,37,40Z" transform="translate(0 0)"/><path class="cls-4" d="M37,11.47V40a50.37,50.37,0,0,1-12.7,1.49,51.24,51.24,0,0,1-12.13-1.35V11.47l0-.12a3.71,3.71,0,0,0,2.72-3.63,3.8,3.8,0,0,0-.79-2.34l0-.06,2.64-1.61H20L22.64,13l1.87,6.61L29.66,3.71h3.5L35.37,5.3a3.67,3.67,0,0,0-1,2.55A3.61,3.61,0,0,0,37,11.33Z" transform="translate(0 0)"/><polygon class="cls-5" points="29.66 3.71 24.51 19.58 22.64 12.97 20.02 3.71 21.79 3.71 21.83 3.88 22.13 5.13 22.35 6.07 22.63 7.25 22.88 8.26 23.08 9.12 23.4 10.44 23.52 10.96 23.64 11.47 23.91 12.6 24.04 13.11 24.57 15.36 25.2 13.14 25.39 12.49 25.67 11.47 25.68 11.43 25.91 10.64 26.24 9.46 26.44 8.76 26.81 7.46 27.19 6.12 27.5 5.02 27.8 3.99 27.87 3.71 29.66 3.71"/><path class="cls-6" d="M23.23,13.88c-.36.51-.16-.2,1.14-1s1.43-.22,1.95.28" transform="translate(0 0)"/><path class="cls-7" d="M22.55,13a1.5,1.5,0,0,1,1.53-.42,2.17,2.17,0,0,1,1.81,1.81" transform="translate(0 0)"/><path class="cls-6" d="M22.76,11.86c.13-.24.14-.7,1.17-1.08a2.72,2.72,0,0,1,2.54.12" transform="translate(0 0)"/><path class="cls-7" d="M22.49,10.62c.24-.15.55-.27,1.63-.09a2.41,2.41,0,0,1,2,1.7" transform="translate(0 0)"/><path class="cls-6" d="M22.55,9.71a3.35,3.35,0,0,1,1.69-1.24,2.54,2.54,0,0,1,2.64.64" transform="translate(0 0)"/><path class="cls-7" d="M22.32,8.65a2.77,2.77,0,0,1,2.08-.72c1.57.25,2,2,2.07,2.1" transform="translate(0 0)"/><path class="cls-6" d="M22.32,7.76A3.5,3.5,0,0,1,24.06,6.1c1.75-.7,4,0,3.13.54" transform="translate(0 0)"/><path class="cls-7" d="M22,6.28a3.17,3.17,0,0,1,2.15-.46,5.32,5.32,0,0,1,2.93,1.94" transform="translate(0 0)"/><path class="cls-6" d="M21.79,5.52a6.62,6.62,0,0,1,2.44-1.78,5.62,5.62,0,0,1,3.87.39" transform="translate(0 0)"/><path class="cls-7" d="M21.43,4.07a5.72,5.72,0,0,1,2.87-.62,8.25,8.25,0,0,1,3.47,1.81" transform="translate(0 0)"/></svg>