<svg id="Layer_1" data-name="Layer 1" xmlns="http://www.w3.org/2000/svg" viewBox="0 0 48 48"><defs><style>.cls-1{fill:#e6e7e8;}.cls-2{fill:#754c29;}.cls-3{fill:#8b5e3c;}.cls-4{fill:#3c2415;}.cls-5{fill:none;}</style></defs><title>LeatherHelmet</title><path class="cls-1" d="M48,5.16V42.84A5.16,5.16,0,0,1,42.84,48H5.16a5.08,5.08,0,0,1-1.52-.23,4.66,4.66,0,0,1-1-.4l-.32-.19a4.43,4.43,0,0,1-.61-.46,5.3,5.3,0,0,1-.53-.53,6,6,0,0,1-.42-.57A5.15,5.15,0,0,1,0,42.84V5.16A5.16,5.16,0,0,1,5.16,0H42.84A5.16,5.16,0,0,1,48,5.16Z" transform="translate(0 0)"/><path class="cls-2" d="M43,42.69l-1.41-.34c-1.4-.34-5.39-3-7.39-5.52a6.64,6.64,0,0,1-.72-2.08c-.13-.58-.22-1.1-.25-1.29h0l.06-.15-.07.08a49.14,49.14,0,0,1,.41-9h0s-2,.23-4.69.52c-4.06.44-9.65,1-12.19.76l-.65-.07c-1.28-1.43-1.46-6.77-.68-10.6s4.81-7.29,4.81-7.29l0-.07c5.38-2.43,16,2.44,19.28,6.68s1.17,19.2,1.17,22S43,42.69,43,42.69Z" transform="translate(0 0)"/><path class="cls-3" d="M15.41,15c-.78,3.83-.6,9.17.68,10.6a52.75,52.75,0,0,1-9-2.2l-.89-.3a15.47,15.47,0,0,1,14-15.39S16.19,11.2,15.41,15Z" transform="translate(0 0)"/><path class="cls-4" d="M33.62,24.42a49.14,49.14,0,0,0-.41,9v.07h0c0,.19.12.71.25,1.29a59.12,59.12,0,0,0-8.06-3.24c-3.75-1.09-12.5,0-15.86,1.41s-2.83,3.27-2.81,3.36A15.28,15.28,0,0,1,5.1,28.16c.55-4.07,1.09-5,1.09-5l.89.3a52.75,52.75,0,0,0,9,2.2l.65.07c2.54.21,8.13-.32,12.19-.76,2.68-.29,4.69-.54,4.69-.52Z" transform="translate(0 0)"/><line class="cls-5" x1="16.09" y1="25.63" x2="16.09" y2="25.63"/></svg>