<svg id="Layer_1" data-name="Layer 1" xmlns="http://www.w3.org/2000/svg" viewBox="0 0 48 48"><defs><style>.cls-1{fill:#e6e7e8;}.cls-2{fill:#808285;}.cls-3{fill:#bcbec0;}</style></defs><title>MetalArmsIcon</title><path class="cls-1" d="M48,5.16V42.84A5.16,5.16,0,0,1,42.84,48H5.16a5.08,5.08,0,0,1-1.52-.23,4.66,4.66,0,0,1-1-.4l-.32-.19a4.43,4.43,0,0,1-.61-.46,5.3,5.3,0,0,1-.53-.53,6,6,0,0,1-.42-.57A5.15,5.15,0,0,1,0,42.84V5.16A5.16,5.16,0,0,1,5.16,0H42.84A5.16,5.16,0,0,1,48,5.16Z" transform="translate(0 0)"/><path class="cls-2" d="M23.12,21.82l-1,.28h0a28.14,28.14,0,0,1-6,1.2c-.22,0-.48,0-.76,0V8.65h.15c2,.07,5.62,1.88,5.62,1.88Z" transform="translate(0 0)"/><path class="cls-3" d="M15.37,8.65V23.28a44.83,44.83,0,0,1-6.78-.92h0a4.28,4.28,0,0,1-.81-.26c-.91-.47,1.37-11.56,1.37-11.56S13.34,8.68,15.37,8.65Z" transform="translate(0 0)"/><path class="cls-2" d="M23.88,31.05s-.94.25-2.24.55l-.36.08-.44.09-.33.08-.7.14-.32.06h0l-.39.07-1.49.24-.38.05-.82.09-.18,0h-.84V23.28c.28,0,.54,0,.76,0a28.14,28.14,0,0,0,6-1.2h0Z" transform="translate(0 0)"/><path class="cls-3" d="M15.37,23.28v9.28h0a65.43,65.43,0,0,1-7.09-1l-1.38-.25,1.72-9A44.83,44.83,0,0,0,15.37,23.28Z" transform="translate(0 0)"/><path class="cls-2" d="M26.46,40.31s-7.75,2-11.09,2V32.56h.84l.18,0,.82-.09.38-.05,1.49-.24.39-.07h0l.32-.06.7-.14.33-.08.44-.09.36-.08h1.48Z" transform="translate(0 0)"/><path class="cls-3" d="M15.37,32.56v9.79c-3.34.07-9.5-2-9.5-2L8.25,31.6a65.43,65.43,0,0,0,7.09,1Z" transform="translate(0 0)"/><path class="cls-2" d="M40.42,39.55s-4.18,1.87-6.22,1.89V26.81a46.29,46.29,0,0,1,6.79.92h0a4.28,4.28,0,0,1,.8.25C42.7,28.46,40.42,39.55,40.42,39.55Z" transform="translate(0 0)"/><path class="cls-3" d="M34.2,26.81V41.44h-.15c-2-.07-5.62-1.89-5.62-1.89l-2-11.27.95-.29h0a28.14,28.14,0,0,1,6-1.2Z" transform="translate(0 0)"/><path class="cls-2" d="M42.7,18.75l-1.71,9a46.29,46.29,0,0,0-6.79-.92V17.53h0a63.42,63.42,0,0,1,7.1,1Z" transform="translate(0 0)"/><path class="cls-3" d="M34.2,17.53v9.28l-.76,0a28.14,28.14,0,0,0-6,1.2h0L25.7,19.05s.93-.25,2.23-.55l.36-.08.44-.1.33-.07.7-.14.32-.07h0l.38-.07c.5-.1,1-.18,1.49-.25l.38,0,.82-.09h1Z" transform="translate(0 0)"/><path class="cls-2" d="M43.7,9.79,41.33,18.5a63.42,63.42,0,0,0-7.1-1h0V7.74C37.54,7.67,43.7,9.79,43.7,9.79Z" transform="translate(0 0)"/><path class="cls-3" d="M34.2,7.74v9.79h-1l-.82.09-.38,0c-.49.07-1,.15-1.49.25l-.38.07h0l-.32.07-.7.14-.33.07-.44.1-.36.08H26.46L23.12,9.79S30.86,7.81,34.2,7.74Z" transform="translate(0 0)"/></svg>