<svg id="Layer_1" data-name="Layer 1" xmlns="http://www.w3.org/2000/svg" viewBox="0 0 48 48"><defs><style>.cls-1{fill:#e6e7e8;}.cls-2{fill:#a7a9ac;}.cls-3{fill:#808285;}.cls-4{fill:none;}</style></defs><title>MetalShoesIcon</title><path class="cls-1" d="M48,5.16V42.84A5.16,5.16,0,0,1,42.84,48H5.16a5.08,5.08,0,0,1-1.52-.23,4.66,4.66,0,0,1-1-.4l-.32-.19a5.41,5.41,0,0,1-.61-.46,5.3,5.3,0,0,1-.53-.53,6,6,0,0,1-.42-.57A5.17,5.17,0,0,1,0,42.84V5.16A5.16,5.16,0,0,1,5.16,0H42.84A5.16,5.16,0,0,1,48,5.16Z"/><path class="cls-2" d="M24.8,5.51v4c-1.62.84-3.38-1.86-5.22-1.86-1.64,0-4.67,2.07-5.23,1.89l.21-5a11.65,11.65,0,0,1,5.08-2.16C22.1,2.23,24.8,5.51,24.8,5.51Z"/><path class="cls-3" d="M24.8,9.55v27.7H11.41s.08-3.8-1.34-5.22A25.34,25.34,0,0,0,7.9,30a6.15,6.15,0,0,1,1.37-1c.86-.46,1.57-.82,2.14-1.1h0c.07,0,2.61-.09,3.35,1a4.37,4.37,0,0,1,.67,2.47H19s1.34-3.53,0-5.29-2.9-3.56-5.23-3.5l.54-13c.56.18,3.59-1.89,5.23-1.89C21.42,7.69,23.18,10.39,24.8,9.55Z"/><path class="cls-3" d="M43.42,20.68V42.12s-6.49,2.21-9.84,3.06l-.27.06c-.38-.89-1.08-2.51-1.83-4.17a7.42,7.42,0,0,0-3.8-3.49l-.19.06c.34-.46.7-.91,1.05-1.31h0a24.34,24.34,0,0,1,1.91-2s3.15.92,3.92,2a14.29,14.29,0,0,1,1.44,3.28l3.36-.55s1.12-4.79,0-6.47a19.09,19.09,0,0,0-4.11-3.7s-3.49-.75-4.61,2V20.37s3.8-2.89,5.14-3.79,5.86,1.54,7.83,3.15C43.43,20.32,43.42,20.68,43.42,20.68Z"/><path class="cls-2" d="M43.42,19.73c-2-1.61-6.49-4-7.83-3.15s-5.14,3.79-5.14,3.79A50.39,50.39,0,0,1,31,14.2c.37-1.83,4.51-5.07,4.51-5.07a15.78,15.78,0,0,1,5.72,3.18C43,14,43.37,17.93,43.42,19.73Z"/><path class="cls-4" d="M43.42,19.74h0"/><path class="cls-2" d="M33.6,46S28.11,47.62,26.44,47s-4.13-.58-4.35-1.81,1.29-6.3,5.4-7.59l.19-.06a7.42,7.42,0,0,1,3.8,3.49c.75,1.66,1.45,3.28,1.83,4.17Z"/><path class="cls-2" d="M39.17,39.06l-3.36.55a14.29,14.29,0,0,0-1.44-3.28c-.77-1.06-3.92-2-3.92-2a24.34,24.34,0,0,0-1.91,2c0-.08.81-2.78,1.91-5.46s4.61-2,4.61-2a19.09,19.09,0,0,1,4.11,3.7C40.29,34.27,39.17,39.06,39.17,39.06Z"/><path class="cls-2" d="M11.41,37.25H2.06l1.63-4,2.43-4A3,3,0,0,1,7.9,30,25.34,25.34,0,0,1,10.07,32C11.49,33.45,11.41,37.25,11.41,37.25Z"/><path class="cls-2" d="M19,31.36H15.43a4.37,4.37,0,0,0-.67-2.47c-.74-1.11-3.28-1-3.35-1h0l.69-4.55,2.25-1.41c2.32-.07,3.35,2.4,4.69,4.16S19,31.36,19,31.36Z"/><path class="cls-4" d="M14.35,9.59l-.11,0"/></svg>