<svg id="Layer_1" data-name="Layer 1" xmlns="http://www.w3.org/2000/svg" viewBox="0 0 47.87 47.86"><defs><style>.cls-1{fill:#e6e7e8;}.cls-2{fill:#939598;}.cls-3{fill:#bcbec0;}.cls-4{fill:none;}.cls-5{fill:#e28d55;}.cls-6{fill:#e2a955;}.cls-7{fill:#3f0300;}</style></defs><title>SwordIcon</title><path class="cls-1" d="M48,5.14V42.72a5.14,5.14,0,0,1-5.14,5.14H5.28a5.05,5.05,0,0,1-2.46-.62,3.37,3.37,0,0,1-.32-.19,5.41,5.41,0,0,1-.61-.46,5.3,5.3,0,0,1-.53-.53,6,6,0,0,1-.42-.57,5.14,5.14,0,0,1-.81-2.77V5.14A5.15,5.15,0,0,1,5.28,0H42.86A5.14,5.14,0,0,1,48,5.14Z" transform="translate(-0.13 0)"/><polygon class="cls-2" points="44.3 3.44 36.73 10.95 18.23 29.34 17.7 29.85 17.26 30.3 13.33 26.38 32.74 6.96 44.3 3.44"/><polygon class="cls-3" points="40.79 15.01 21.38 34.42 17.26 30.3 17.7 29.85 18.23 29.34 36.73 10.95 44.3 3.44 40.77 14.99 40.79 15.01"/><path class="cls-4" d="M15.61,24.24l0,0-.11-.11Z" transform="translate(-0.13 0)"/><polygon class="cls-5" points="21.84 35.64 21.16 36.33 19.57 35.61 12.11 28.14 11.3 26.46 11.98 25.78 16.55 31.09 21.84 35.64"/><polygon class="cls-6" points="22.22 35.27 21.84 35.64 16.55 31.09 11.98 25.78 12.35 25.41 22.22 35.27"/><path class="cls-4" d="M15.61,24.24l0,0-.11-.11Z" transform="translate(-0.13 0)"/><path d="M8.85,42.55,8,43.38l-3.8-3.81.83-.83c.55.65,1.17,1.31,1.83,2l0,0C7.57,41.41,8.21,42,8.85,42.55Z" transform="translate(-0.13 0)"/><path class="cls-4" d="M13.72,34.64l-.39-.38L13,33.87l.39.39C13.47,34.39,13.59,34.52,13.72,34.64Z" transform="translate(-0.13 0)"/><path class="cls-4" d="M12.25,36.2l-.43-.42-.38-.39.43.43C12,35.94,12.13,36.07,12.25,36.2Z" transform="translate(-0.13 0)"/><path class="cls-7" d="M9.25,42.14l-.4.41c-.64-.54-1.28-1.14-1.93-1.79l0,0c-.66-.67-1.28-1.33-1.83-2l.41-.41c.56.66,1.19,1.34,1.87,2S8.62,41.6,9.25,42.14Z" transform="translate(-0.13 0)"/><polygon class="cls-5" points="7.63 43.63 7.23 44.04 5.21 43.46 3.96 42.19 3.37 40.28 3.83 39.83 7.63 43.63"/><rect class="cls-6" x="5.81" y="38.91" width="0.36" height="5.38" transform="translate(-27.8 16.42) rotate(-45)"/><path class="cls-4" d="M13.72,34.64l-.39-.38L13,33.87l.39.39C13.47,34.39,13.59,34.52,13.72,34.64Z" transform="translate(-0.13 0)"/><path d="M17.77,33.63l-1,1c-.6-.52-1.22-1.09-1.83-1.7s-1.37-1.43-2-2.12l.94-.94Z" transform="translate(-0.13 0)"/><path class="cls-7" d="M16.81,34.59l-.4.4c-.63-.55-1.28-1.15-1.93-1.8l0,0c-.66-.66-1.27-1.33-1.83-2l.41-.41c.59.69,1.25,1.4,2,2.12S16.21,34.07,16.81,34.59Z" transform="translate(-0.13 0)"/><path d="M16.41,35l-1.11,1.1c-.52-.44-1.05-.93-1.58-1.45-.13-.12-.25-.25-.38-.38L13,33.87c-.52-.53-1-1.06-1.45-1.58l1.11-1.11c.56.64,1.17,1.31,1.83,2l0,0C15.13,33.84,15.78,34.44,16.41,35Z" transform="translate(-0.13 0)"/><path class="cls-4" d="M13.72,34.64l-.39-.38L13,33.87l.39.39C13.47,34.39,13.59,34.52,13.72,34.64Z" transform="translate(-0.13 0)"/><path class="cls-4" d="M12.25,36.2l-.43-.42-.38-.39.43.43C12,35.94,12.13,36.07,12.25,36.2Z" transform="translate(-0.13 0)"/><path class="cls-7" d="M15.3,36.09l-.4.41c-.64-.55-1.29-1.15-1.94-1.81l0,0c-.66-.67-1.28-1.33-1.83-2l.4-.4c.45.52.93,1.05,1.45,1.58l.38.39.39.38C14.25,35.16,14.78,35.65,15.3,36.09Z" transform="translate(-0.13 0)"/><path class="cls-4" d="M13.72,34.64l-.39-.38L13,33.87l.39.39C13.47,34.39,13.59,34.52,13.72,34.64Z" transform="translate(-0.13 0)"/><path d="M14.9,36.5l-1.11,1.11c-.51-.44-1-.91-1.54-1.41-.12-.13-.25-.26-.38-.38l-.43-.43c-.52-.53-1-1.07-1.45-1.59l1.11-1.11c.55.65,1.17,1.31,1.83,2l0,0C13.61,35.35,14.26,36,14.9,36.5Z" transform="translate(-0.13 0)"/><path class="cls-4" d="M12.25,36.2l-.43-.42-.38-.39.43.43C12,35.94,12.13,36.07,12.25,36.2Z" transform="translate(-0.13 0)"/><path class="cls-7" d="M13.79,37.61l-.4.4c-.64-.55-1.3-1.16-2-1.81l0,0c-.67-.66-1.28-1.33-1.84-2L10,33.8c.44.52.93,1.06,1.45,1.59l.38.39.43.42C12.77,36.7,13.28,37.17,13.79,37.61Z" transform="translate(-0.13 0)"/><path class="cls-4" d="M12.25,36.2l-.43-.42-.38-.39.43.43C12,35.94,12.13,36.07,12.25,36.2Z" transform="translate(-0.13 0)"/><path d="M13.39,38l-1.11,1.1c-.63-.54-1.27-1.14-1.92-1.78l0,0c-.66-.66-1.28-1.32-1.83-2l1.1-1.1c.56.64,1.17,1.31,1.84,2l0,0C12.09,36.85,12.75,37.46,13.39,38Z" transform="translate(-0.13 0)"/><path class="cls-7" d="M12.28,39.11l-.41.41c-.63-.54-1.28-1.14-1.93-1.79l0,0c-.66-.66-1.27-1.33-1.83-2l.41-.41c.55.65,1.17,1.31,1.83,2l0,0C11,38,11.65,38.57,12.28,39.11Z" transform="translate(-0.13 0)"/><path d="M10.36,41,9.25,42.14C8.62,41.6,8,41,7.33,40.35S6,39,5.46,38.33l1.1-1.1c.55.65,1.17,1.31,1.83,2h0C9.06,39.87,9.72,40.48,10.36,41Z" transform="translate(-0.13 0)"/><path d="M11.87,39.52l-1.1,1.11c-.63-.54-1.28-1.14-1.92-1.79s-1.31-1.36-1.88-2l1.1-1.1c.56.64,1.17,1.31,1.83,2l0,0C10.59,38.38,11.24,39,11.87,39.52Z" transform="translate(-0.13 0)"/><path class="cls-7" d="M10.77,40.63l-.41.4c-.64-.55-1.3-1.16-2-1.82h0c-.66-.66-1.28-1.32-1.83-2L7,36.82c.57.66,1.2,1.34,1.88,2S10.14,40.09,10.77,40.63Z" transform="translate(-0.13 0)"/></svg>